G04 #@! TF.GenerationSoftware,KiCad,Pcbnew,(5.1.10)-1*
G04 #@! TF.CreationDate,2021-07-26T23:03:21+09:00*
G04 #@! TF.ProjectId,Snacks65,536e6163-6b73-4363-952e-6b696361645f,rev?*
G04 #@! TF.SameCoordinates,Original*
G04 #@! TF.FileFunction,Legend,Bot*
G04 #@! TF.FilePolarity,Positive*
%FSLAX46Y46*%
G04 Gerber Fmt 4.6, Leading zero omitted, Abs format (unit mm)*
G04 Created by KiCad (PCBNEW (5.1.10)-1) date 2021-07-26 23:03:21*
%MOMM*%
%LPD*%
G01*
G04 APERTURE LIST*
%ADD10C,0.150000*%
%ADD11C,0.120000*%
G04 APERTURE END LIST*
D10*
G04 #@! TO.C,SW1*
X343768750Y-18243750D02*
X343768750Y-21443750D01*
X349968750Y-18243750D02*
X349968750Y-21443750D01*
X343768750Y-18243750D02*
X349968750Y-18243750D01*
X343768750Y-21443750D02*
X349968750Y-21443750D01*
X341618750Y-17093750D02*
X352118750Y-17093750D01*
X352618750Y-17593750D02*
X355668750Y-17593750D01*
X352618750Y-22093750D02*
X355668750Y-22093750D01*
X356668750Y-21093750D02*
X356668750Y-18593750D01*
X338068750Y-17593750D02*
X341118750Y-17593750D01*
X337068750Y-21093750D02*
X337068750Y-18593750D01*
X341618750Y-22593750D02*
X352118750Y-22593750D01*
X338068750Y-22093750D02*
X341118750Y-22093750D01*
X340468750Y-19843750D02*
G75*
G03*
X340468750Y-19843750I-1100000J0D01*
G01*
X355468750Y-19843750D02*
G75*
G03*
X355468750Y-19843750I-1100000J0D01*
G01*
X341618750Y-22593750D02*
G75*
G02*
X341118750Y-22093750I0J500000D01*
G01*
X352618750Y-22093750D02*
G75*
G02*
X352118750Y-22593750I-500000J0D01*
G01*
X352118750Y-17093750D02*
G75*
G02*
X352618750Y-17593750I0J-500000D01*
G01*
X341118750Y-17593750D02*
G75*
G02*
X341618750Y-17093750I500000J0D01*
G01*
X337068750Y-18593750D02*
G75*
G02*
X338068750Y-17593750I1000000J0D01*
G01*
X338068750Y-22093750D02*
G75*
G02*
X337068750Y-21093750I0J1000000D01*
G01*
X355668750Y-17593750D02*
G75*
G02*
X356668750Y-18593750I0J-1000000D01*
G01*
X356668750Y-21093750D02*
G75*
G02*
X355668750Y-22093750I-1000000J0D01*
G01*
D11*
G04 #@! TO.C,A1*
X335868750Y-25606250D02*
X335868750Y-23606250D01*
X315118750Y-18146250D02*
X332898750Y-18146250D01*
X315118750Y-69166250D02*
X332898750Y-69166250D01*
X312468750Y-20796250D02*
X312468750Y-66516250D01*
X335548750Y-20796250D02*
X335548750Y-66516250D01*
X315118750Y-18146250D02*
G75*
G03*
X312468750Y-20796250I0J-2650000D01*
G01*
X335548750Y-20796250D02*
G75*
G03*
X332898750Y-18146250I-2650000J0D01*
G01*
X312468750Y-66516250D02*
G75*
G03*
X315118750Y-69166250I2650000J0D01*
G01*
X332898750Y-69166250D02*
G75*
G03*
X335548750Y-66516250I0J2650000D01*
G01*
G04 #@! TO.C,J1*
X343187500Y-40408750D02*
X341987500Y-40408750D01*
X348987500Y-45218750D02*
X347247500Y-45218750D01*
X348987500Y-38918750D02*
X348987500Y-45218750D01*
X347247500Y-38918750D02*
X348987500Y-38918750D01*
X343187500Y-45218750D02*
X344527500Y-45218750D01*
X343187500Y-43728750D02*
X343187500Y-45218750D01*
X343187500Y-38918750D02*
X344527500Y-38918750D01*
X343187500Y-40408750D02*
X343187500Y-38918750D01*
G04 #@! TO.C,R2*
X340942664Y-51789000D02*
X340488536Y-51789000D01*
X340942664Y-50319000D02*
X340488536Y-50319000D01*
G04 #@! TO.C,R1*
X340942664Y-54532200D02*
X340488536Y-54532200D01*
X340942664Y-53062200D02*
X340488536Y-53062200D01*
G04 #@! TO.C,D34*
X288917500Y-104741250D02*
X288917500Y-103281250D01*
X285757500Y-104741250D02*
X285757500Y-102581250D01*
X285757500Y-104741250D02*
X286687500Y-104741250D01*
X288917500Y-104741250D02*
X287987500Y-104741250D01*
G04 #@! TO.C,D33*
X287330000Y-84103750D02*
X287330000Y-82643750D01*
X284170000Y-84103750D02*
X284170000Y-81943750D01*
X284170000Y-84103750D02*
X285100000Y-84103750D01*
X287330000Y-84103750D02*
X286400000Y-84103750D01*
G04 #@! TO.C,D32*
X265105000Y-66641250D02*
X265105000Y-65181250D01*
X261945000Y-66641250D02*
X261945000Y-64481250D01*
X261945000Y-66641250D02*
X262875000Y-66641250D01*
X265105000Y-66641250D02*
X264175000Y-66641250D01*
G04 #@! TO.C,D31*
X280186250Y-47591250D02*
X280186250Y-46131250D01*
X277026250Y-47591250D02*
X277026250Y-45431250D01*
X277026250Y-47591250D02*
X277956250Y-47591250D01*
X280186250Y-47591250D02*
X279256250Y-47591250D01*
G04 #@! TO.C,D30*
X268280000Y-28541250D02*
X268280000Y-27081250D01*
X265120000Y-28541250D02*
X265120000Y-26381250D01*
X265120000Y-28541250D02*
X266050000Y-28541250D01*
X268280000Y-28541250D02*
X267350000Y-28541250D01*
G04 #@! TO.C,D28*
X234942500Y-104741250D02*
X234942500Y-103281250D01*
X231782500Y-104741250D02*
X231782500Y-102581250D01*
X231782500Y-104741250D02*
X232712500Y-104741250D01*
X234942500Y-104741250D02*
X234012500Y-104741250D01*
G04 #@! TO.C,D27*
X234942500Y-85691250D02*
X234942500Y-84231250D01*
X231782500Y-85691250D02*
X231782500Y-83531250D01*
X231782500Y-85691250D02*
X232712500Y-85691250D01*
X234942500Y-85691250D02*
X234012500Y-85691250D01*
G04 #@! TO.C,D26*
X244467500Y-66641250D02*
X244467500Y-65181250D01*
X241307500Y-66641250D02*
X241307500Y-64481250D01*
X241307500Y-66641250D02*
X242237500Y-66641250D01*
X244467500Y-66641250D02*
X243537500Y-66641250D01*
G04 #@! TO.C,D25*
X239705000Y-47591250D02*
X239705000Y-46131250D01*
X236545000Y-47591250D02*
X236545000Y-45431250D01*
X236545000Y-47591250D02*
X237475000Y-47591250D01*
X239705000Y-47591250D02*
X238775000Y-47591250D01*
G04 #@! TO.C,D24*
X230180000Y-28541250D02*
X230180000Y-27081250D01*
X227020000Y-28541250D02*
X227020000Y-26381250D01*
X227020000Y-28541250D02*
X227950000Y-28541250D01*
X230180000Y-28541250D02*
X229250000Y-28541250D01*
G04 #@! TO.C,D23*
X196842500Y-85691250D02*
X196842500Y-84231250D01*
X193682500Y-85691250D02*
X193682500Y-83531250D01*
X193682500Y-85691250D02*
X194612500Y-85691250D01*
X196842500Y-85691250D02*
X195912500Y-85691250D01*
G04 #@! TO.C,D22*
X206367500Y-66641250D02*
X206367500Y-65181250D01*
X203207500Y-66641250D02*
X203207500Y-64481250D01*
X203207500Y-66641250D02*
X204137500Y-66641250D01*
X206367500Y-66641250D02*
X205437500Y-66641250D01*
G04 #@! TO.C,D21*
X201605000Y-47591250D02*
X201605000Y-46131250D01*
X198445000Y-47591250D02*
X198445000Y-45431250D01*
X198445000Y-47591250D02*
X199375000Y-47591250D01*
X201605000Y-47591250D02*
X200675000Y-47591250D01*
G04 #@! TO.C,D20*
X192080000Y-28541250D02*
X192080000Y-27081250D01*
X188920000Y-28541250D02*
X188920000Y-26381250D01*
X188920000Y-28541250D02*
X189850000Y-28541250D01*
X192080000Y-28541250D02*
X191150000Y-28541250D01*
G04 #@! TO.C,D19*
X164298750Y-104741250D02*
X164298750Y-103281250D01*
X161138750Y-104741250D02*
X161138750Y-102581250D01*
X161138750Y-104741250D02*
X162068750Y-104741250D01*
X164298750Y-104741250D02*
X163368750Y-104741250D01*
G04 #@! TO.C,D18*
X158742500Y-85691250D02*
X158742500Y-84231250D01*
X155582500Y-85691250D02*
X155582500Y-83531250D01*
X155582500Y-85691250D02*
X156512500Y-85691250D01*
X158742500Y-85691250D02*
X157812500Y-85691250D01*
G04 #@! TO.C,D17*
X168267500Y-66641250D02*
X168267500Y-65181250D01*
X165107500Y-66641250D02*
X165107500Y-64481250D01*
X165107500Y-66641250D02*
X166037500Y-66641250D01*
X168267500Y-66641250D02*
X167337500Y-66641250D01*
G04 #@! TO.C,D16*
X163505000Y-47591250D02*
X163505000Y-46131250D01*
X160345000Y-47591250D02*
X160345000Y-45431250D01*
X160345000Y-47591250D02*
X161275000Y-47591250D01*
X163505000Y-47591250D02*
X162575000Y-47591250D01*
G04 #@! TO.C,D15*
X153980000Y-28541250D02*
X153980000Y-27081250D01*
X150820000Y-28541250D02*
X150820000Y-26381250D01*
X150820000Y-28541250D02*
X151750000Y-28541250D01*
X153980000Y-28541250D02*
X153050000Y-28541250D01*
G04 #@! TO.C,D14*
X120642500Y-85485000D02*
X120642500Y-84025000D01*
X117482500Y-85485000D02*
X117482500Y-83325000D01*
X117482500Y-85485000D02*
X118412500Y-85485000D01*
X120642500Y-85485000D02*
X119712500Y-85485000D01*
G04 #@! TO.C,D13*
X130167500Y-66641250D02*
X130167500Y-65181250D01*
X127007500Y-66641250D02*
X127007500Y-64481250D01*
X127007500Y-66641250D02*
X127937500Y-66641250D01*
X130167500Y-66641250D02*
X129237500Y-66641250D01*
G04 #@! TO.C,D12*
X125405000Y-47591250D02*
X125405000Y-46131250D01*
X122245000Y-47591250D02*
X122245000Y-45431250D01*
X122245000Y-47591250D02*
X123175000Y-47591250D01*
X125405000Y-47591250D02*
X124475000Y-47591250D01*
G04 #@! TO.C,D11*
X115880000Y-28541250D02*
X115880000Y-27081250D01*
X112720000Y-28541250D02*
X112720000Y-26381250D01*
X112720000Y-28541250D02*
X113650000Y-28541250D01*
X115880000Y-28541250D02*
X114950000Y-28541250D01*
G04 #@! TO.C,D10*
X92223750Y-104535000D02*
X92223750Y-103075000D01*
X89063750Y-104535000D02*
X89063750Y-102375000D01*
X89063750Y-104535000D02*
X89993750Y-104535000D01*
X92223750Y-104535000D02*
X91293750Y-104535000D01*
G04 #@! TO.C,D9*
X82542500Y-85691250D02*
X82542500Y-84231250D01*
X79382500Y-85691250D02*
X79382500Y-83531250D01*
X79382500Y-85691250D02*
X80312500Y-85691250D01*
X82542500Y-85691250D02*
X81612500Y-85691250D01*
G04 #@! TO.C,D8*
X92067500Y-66641250D02*
X92067500Y-65181250D01*
X88907500Y-66641250D02*
X88907500Y-64481250D01*
X88907500Y-66641250D02*
X89837500Y-66641250D01*
X92067500Y-66641250D02*
X91137500Y-66641250D01*
G04 #@! TO.C,D7*
X87305000Y-47591250D02*
X87305000Y-46131250D01*
X84145000Y-47591250D02*
X84145000Y-45431250D01*
X84145000Y-47591250D02*
X85075000Y-47591250D01*
X87305000Y-47591250D02*
X86375000Y-47591250D01*
G04 #@! TO.C,D6*
X77780000Y-28541250D02*
X77780000Y-27081250D01*
X74620000Y-28541250D02*
X74620000Y-26381250D01*
X74620000Y-28541250D02*
X75550000Y-28541250D01*
X77780000Y-28541250D02*
X76850000Y-28541250D01*
G04 #@! TO.C,D5*
X44442500Y-104741250D02*
X44442500Y-103281250D01*
X41282500Y-104741250D02*
X41282500Y-102581250D01*
X41282500Y-104741250D02*
X42212500Y-104741250D01*
X44442500Y-104741250D02*
X43512500Y-104741250D01*
G04 #@! TO.C,D4*
X63492500Y-85691250D02*
X63492500Y-84231250D01*
X60332500Y-85691250D02*
X60332500Y-83531250D01*
X60332500Y-85691250D02*
X61262500Y-85691250D01*
X63492500Y-85691250D02*
X62562500Y-85691250D01*
G04 #@! TO.C,D3*
X50792500Y-66641250D02*
X50792500Y-65181250D01*
X47632500Y-66641250D02*
X47632500Y-64481250D01*
X47632500Y-66641250D02*
X48562500Y-66641250D01*
X50792500Y-66641250D02*
X49862500Y-66641250D01*
G04 #@! TO.C,D2*
X46823750Y-47591250D02*
X46823750Y-46131250D01*
X43663750Y-47591250D02*
X43663750Y-45431250D01*
X43663750Y-47591250D02*
X44593750Y-47591250D01*
X46823750Y-47591250D02*
X45893750Y-47591250D01*
G04 #@! TO.C,D1*
X39680000Y-28541250D02*
X39680000Y-27081250D01*
X36520000Y-28541250D02*
X36520000Y-26381250D01*
X36520000Y-28541250D02*
X37450000Y-28541250D01*
X39680000Y-28541250D02*
X38750000Y-28541250D01*
G04 #@! TO.C,SW1*
D10*
X348202083Y-16438511D02*
X348059226Y-16486130D01*
X347821130Y-16486130D01*
X347725892Y-16438511D01*
X347678273Y-16390892D01*
X347630654Y-16295654D01*
X347630654Y-16200416D01*
X347678273Y-16105178D01*
X347725892Y-16057559D01*
X347821130Y-16009940D01*
X348011607Y-15962321D01*
X348106845Y-15914702D01*
X348154464Y-15867083D01*
X348202083Y-15771845D01*
X348202083Y-15676607D01*
X348154464Y-15581369D01*
X348106845Y-15533750D01*
X348011607Y-15486130D01*
X347773511Y-15486130D01*
X347630654Y-15533750D01*
X347297321Y-15486130D02*
X347059226Y-16486130D01*
X346868750Y-15771845D01*
X346678273Y-16486130D01*
X346440178Y-15486130D01*
X345535416Y-16486130D02*
X346106845Y-16486130D01*
X345821130Y-16486130D02*
X345821130Y-15486130D01*
X345916369Y-15628988D01*
X346011607Y-15724226D01*
X346106845Y-15771845D01*
G04 #@! TO.C,A1*
X324723035Y-17152916D02*
X324246845Y-17152916D01*
X324818273Y-17438630D02*
X324484940Y-16438630D01*
X324151607Y-17438630D01*
X323294464Y-17438630D02*
X323865892Y-17438630D01*
X323580178Y-17438630D02*
X323580178Y-16438630D01*
X323675416Y-16581488D01*
X323770654Y-16676726D01*
X323865892Y-16724345D01*
G04 #@! TO.C,J1*
X340239880Y-41735416D02*
X340954166Y-41735416D01*
X341097023Y-41687797D01*
X341192261Y-41592559D01*
X341239880Y-41449702D01*
X341239880Y-41354464D01*
X341239880Y-42735416D02*
X341239880Y-42163988D01*
X341239880Y-42449702D02*
X340239880Y-42449702D01*
X340382738Y-42354464D01*
X340477976Y-42259226D01*
X340525595Y-42163988D01*
G04 #@! TO.C,R2*
X340882266Y-49856380D02*
X341215600Y-49380190D01*
X341453695Y-49856380D02*
X341453695Y-48856380D01*
X341072742Y-48856380D01*
X340977504Y-48904000D01*
X340929885Y-48951619D01*
X340882266Y-49046857D01*
X340882266Y-49189714D01*
X340929885Y-49284952D01*
X340977504Y-49332571D01*
X341072742Y-49380190D01*
X341453695Y-49380190D01*
X340501314Y-48951619D02*
X340453695Y-48904000D01*
X340358457Y-48856380D01*
X340120361Y-48856380D01*
X340025123Y-48904000D01*
X339977504Y-48951619D01*
X339929885Y-49046857D01*
X339929885Y-49142095D01*
X339977504Y-49284952D01*
X340548933Y-49856380D01*
X339929885Y-49856380D01*
G04 #@! TO.C,R1*
X340882266Y-52599580D02*
X341215600Y-52123390D01*
X341453695Y-52599580D02*
X341453695Y-51599580D01*
X341072742Y-51599580D01*
X340977504Y-51647200D01*
X340929885Y-51694819D01*
X340882266Y-51790057D01*
X340882266Y-51932914D01*
X340929885Y-52028152D01*
X340977504Y-52075771D01*
X341072742Y-52123390D01*
X341453695Y-52123390D01*
X339929885Y-52599580D02*
X340501314Y-52599580D01*
X340215600Y-52599580D02*
X340215600Y-51599580D01*
X340310838Y-51742438D01*
X340406076Y-51837676D01*
X340501314Y-51885295D01*
G04 #@! TO.C,D34*
X285289880Y-102766964D02*
X284289880Y-102766964D01*
X284289880Y-103005059D01*
X284337500Y-103147916D01*
X284432738Y-103243154D01*
X284527976Y-103290773D01*
X284718452Y-103338392D01*
X284861309Y-103338392D01*
X285051785Y-103290773D01*
X285147023Y-103243154D01*
X285242261Y-103147916D01*
X285289880Y-103005059D01*
X285289880Y-102766964D01*
X284289880Y-103671726D02*
X284289880Y-104290773D01*
X284670833Y-103957440D01*
X284670833Y-104100297D01*
X284718452Y-104195535D01*
X284766071Y-104243154D01*
X284861309Y-104290773D01*
X285099404Y-104290773D01*
X285194642Y-104243154D01*
X285242261Y-104195535D01*
X285289880Y-104100297D01*
X285289880Y-103814583D01*
X285242261Y-103719345D01*
X285194642Y-103671726D01*
X284623214Y-105147916D02*
X285289880Y-105147916D01*
X284242261Y-104909821D02*
X284956547Y-104671726D01*
X284956547Y-105290773D01*
G04 #@! TO.C,D33*
X283702380Y-82129464D02*
X282702380Y-82129464D01*
X282702380Y-82367559D01*
X282750000Y-82510416D01*
X282845238Y-82605654D01*
X282940476Y-82653273D01*
X283130952Y-82700892D01*
X283273809Y-82700892D01*
X283464285Y-82653273D01*
X283559523Y-82605654D01*
X283654761Y-82510416D01*
X283702380Y-82367559D01*
X283702380Y-82129464D01*
X282702380Y-83034226D02*
X282702380Y-83653273D01*
X283083333Y-83319940D01*
X283083333Y-83462797D01*
X283130952Y-83558035D01*
X283178571Y-83605654D01*
X283273809Y-83653273D01*
X283511904Y-83653273D01*
X283607142Y-83605654D01*
X283654761Y-83558035D01*
X283702380Y-83462797D01*
X283702380Y-83177083D01*
X283654761Y-83081845D01*
X283607142Y-83034226D01*
X282702380Y-83986607D02*
X282702380Y-84605654D01*
X283083333Y-84272321D01*
X283083333Y-84415178D01*
X283130952Y-84510416D01*
X283178571Y-84558035D01*
X283273809Y-84605654D01*
X283511904Y-84605654D01*
X283607142Y-84558035D01*
X283654761Y-84510416D01*
X283702380Y-84415178D01*
X283702380Y-84129464D01*
X283654761Y-84034226D01*
X283607142Y-83986607D01*
G04 #@! TO.C,D32*
X261477380Y-64666964D02*
X260477380Y-64666964D01*
X260477380Y-64905059D01*
X260525000Y-65047916D01*
X260620238Y-65143154D01*
X260715476Y-65190773D01*
X260905952Y-65238392D01*
X261048809Y-65238392D01*
X261239285Y-65190773D01*
X261334523Y-65143154D01*
X261429761Y-65047916D01*
X261477380Y-64905059D01*
X261477380Y-64666964D01*
X260477380Y-65571726D02*
X260477380Y-66190773D01*
X260858333Y-65857440D01*
X260858333Y-66000297D01*
X260905952Y-66095535D01*
X260953571Y-66143154D01*
X261048809Y-66190773D01*
X261286904Y-66190773D01*
X261382142Y-66143154D01*
X261429761Y-66095535D01*
X261477380Y-66000297D01*
X261477380Y-65714583D01*
X261429761Y-65619345D01*
X261382142Y-65571726D01*
X260572619Y-66571726D02*
X260525000Y-66619345D01*
X260477380Y-66714583D01*
X260477380Y-66952678D01*
X260525000Y-67047916D01*
X260572619Y-67095535D01*
X260667857Y-67143154D01*
X260763095Y-67143154D01*
X260905952Y-67095535D01*
X261477380Y-66524107D01*
X261477380Y-67143154D01*
G04 #@! TO.C,D31*
X276558630Y-45616964D02*
X275558630Y-45616964D01*
X275558630Y-45855059D01*
X275606250Y-45997916D01*
X275701488Y-46093154D01*
X275796726Y-46140773D01*
X275987202Y-46188392D01*
X276130059Y-46188392D01*
X276320535Y-46140773D01*
X276415773Y-46093154D01*
X276511011Y-45997916D01*
X276558630Y-45855059D01*
X276558630Y-45616964D01*
X275558630Y-46521726D02*
X275558630Y-47140773D01*
X275939583Y-46807440D01*
X275939583Y-46950297D01*
X275987202Y-47045535D01*
X276034821Y-47093154D01*
X276130059Y-47140773D01*
X276368154Y-47140773D01*
X276463392Y-47093154D01*
X276511011Y-47045535D01*
X276558630Y-46950297D01*
X276558630Y-46664583D01*
X276511011Y-46569345D01*
X276463392Y-46521726D01*
X276558630Y-48093154D02*
X276558630Y-47521726D01*
X276558630Y-47807440D02*
X275558630Y-47807440D01*
X275701488Y-47712202D01*
X275796726Y-47616964D01*
X275844345Y-47521726D01*
G04 #@! TO.C,D30*
X264652380Y-26566964D02*
X263652380Y-26566964D01*
X263652380Y-26805059D01*
X263700000Y-26947916D01*
X263795238Y-27043154D01*
X263890476Y-27090773D01*
X264080952Y-27138392D01*
X264223809Y-27138392D01*
X264414285Y-27090773D01*
X264509523Y-27043154D01*
X264604761Y-26947916D01*
X264652380Y-26805059D01*
X264652380Y-26566964D01*
X263652380Y-27471726D02*
X263652380Y-28090773D01*
X264033333Y-27757440D01*
X264033333Y-27900297D01*
X264080952Y-27995535D01*
X264128571Y-28043154D01*
X264223809Y-28090773D01*
X264461904Y-28090773D01*
X264557142Y-28043154D01*
X264604761Y-27995535D01*
X264652380Y-27900297D01*
X264652380Y-27614583D01*
X264604761Y-27519345D01*
X264557142Y-27471726D01*
X263652380Y-28709821D02*
X263652380Y-28805059D01*
X263700000Y-28900297D01*
X263747619Y-28947916D01*
X263842857Y-28995535D01*
X264033333Y-29043154D01*
X264271428Y-29043154D01*
X264461904Y-28995535D01*
X264557142Y-28947916D01*
X264604761Y-28900297D01*
X264652380Y-28805059D01*
X264652380Y-28709821D01*
X264604761Y-28614583D01*
X264557142Y-28566964D01*
X264461904Y-28519345D01*
X264271428Y-28471726D01*
X264033333Y-28471726D01*
X263842857Y-28519345D01*
X263747619Y-28566964D01*
X263700000Y-28614583D01*
X263652380Y-28709821D01*
G04 #@! TO.C,D28*
X231314880Y-102766964D02*
X230314880Y-102766964D01*
X230314880Y-103005059D01*
X230362500Y-103147916D01*
X230457738Y-103243154D01*
X230552976Y-103290773D01*
X230743452Y-103338392D01*
X230886309Y-103338392D01*
X231076785Y-103290773D01*
X231172023Y-103243154D01*
X231267261Y-103147916D01*
X231314880Y-103005059D01*
X231314880Y-102766964D01*
X230410119Y-103719345D02*
X230362500Y-103766964D01*
X230314880Y-103862202D01*
X230314880Y-104100297D01*
X230362500Y-104195535D01*
X230410119Y-104243154D01*
X230505357Y-104290773D01*
X230600595Y-104290773D01*
X230743452Y-104243154D01*
X231314880Y-103671726D01*
X231314880Y-104290773D01*
X230743452Y-104862202D02*
X230695833Y-104766964D01*
X230648214Y-104719345D01*
X230552976Y-104671726D01*
X230505357Y-104671726D01*
X230410119Y-104719345D01*
X230362500Y-104766964D01*
X230314880Y-104862202D01*
X230314880Y-105052678D01*
X230362500Y-105147916D01*
X230410119Y-105195535D01*
X230505357Y-105243154D01*
X230552976Y-105243154D01*
X230648214Y-105195535D01*
X230695833Y-105147916D01*
X230743452Y-105052678D01*
X230743452Y-104862202D01*
X230791071Y-104766964D01*
X230838690Y-104719345D01*
X230933928Y-104671726D01*
X231124404Y-104671726D01*
X231219642Y-104719345D01*
X231267261Y-104766964D01*
X231314880Y-104862202D01*
X231314880Y-105052678D01*
X231267261Y-105147916D01*
X231219642Y-105195535D01*
X231124404Y-105243154D01*
X230933928Y-105243154D01*
X230838690Y-105195535D01*
X230791071Y-105147916D01*
X230743452Y-105052678D01*
G04 #@! TO.C,D27*
X231314880Y-83716964D02*
X230314880Y-83716964D01*
X230314880Y-83955059D01*
X230362500Y-84097916D01*
X230457738Y-84193154D01*
X230552976Y-84240773D01*
X230743452Y-84288392D01*
X230886309Y-84288392D01*
X231076785Y-84240773D01*
X231172023Y-84193154D01*
X231267261Y-84097916D01*
X231314880Y-83955059D01*
X231314880Y-83716964D01*
X230410119Y-84669345D02*
X230362500Y-84716964D01*
X230314880Y-84812202D01*
X230314880Y-85050297D01*
X230362500Y-85145535D01*
X230410119Y-85193154D01*
X230505357Y-85240773D01*
X230600595Y-85240773D01*
X230743452Y-85193154D01*
X231314880Y-84621726D01*
X231314880Y-85240773D01*
X230314880Y-85574107D02*
X230314880Y-86240773D01*
X231314880Y-85812202D01*
G04 #@! TO.C,D26*
X240839880Y-64666964D02*
X239839880Y-64666964D01*
X239839880Y-64905059D01*
X239887500Y-65047916D01*
X239982738Y-65143154D01*
X240077976Y-65190773D01*
X240268452Y-65238392D01*
X240411309Y-65238392D01*
X240601785Y-65190773D01*
X240697023Y-65143154D01*
X240792261Y-65047916D01*
X240839880Y-64905059D01*
X240839880Y-64666964D01*
X239935119Y-65619345D02*
X239887500Y-65666964D01*
X239839880Y-65762202D01*
X239839880Y-66000297D01*
X239887500Y-66095535D01*
X239935119Y-66143154D01*
X240030357Y-66190773D01*
X240125595Y-66190773D01*
X240268452Y-66143154D01*
X240839880Y-65571726D01*
X240839880Y-66190773D01*
X239839880Y-67047916D02*
X239839880Y-66857440D01*
X239887500Y-66762202D01*
X239935119Y-66714583D01*
X240077976Y-66619345D01*
X240268452Y-66571726D01*
X240649404Y-66571726D01*
X240744642Y-66619345D01*
X240792261Y-66666964D01*
X240839880Y-66762202D01*
X240839880Y-66952678D01*
X240792261Y-67047916D01*
X240744642Y-67095535D01*
X240649404Y-67143154D01*
X240411309Y-67143154D01*
X240316071Y-67095535D01*
X240268452Y-67047916D01*
X240220833Y-66952678D01*
X240220833Y-66762202D01*
X240268452Y-66666964D01*
X240316071Y-66619345D01*
X240411309Y-66571726D01*
G04 #@! TO.C,D25*
X236077380Y-45616964D02*
X235077380Y-45616964D01*
X235077380Y-45855059D01*
X235125000Y-45997916D01*
X235220238Y-46093154D01*
X235315476Y-46140773D01*
X235505952Y-46188392D01*
X235648809Y-46188392D01*
X235839285Y-46140773D01*
X235934523Y-46093154D01*
X236029761Y-45997916D01*
X236077380Y-45855059D01*
X236077380Y-45616964D01*
X235172619Y-46569345D02*
X235125000Y-46616964D01*
X235077380Y-46712202D01*
X235077380Y-46950297D01*
X235125000Y-47045535D01*
X235172619Y-47093154D01*
X235267857Y-47140773D01*
X235363095Y-47140773D01*
X235505952Y-47093154D01*
X236077380Y-46521726D01*
X236077380Y-47140773D01*
X235077380Y-48045535D02*
X235077380Y-47569345D01*
X235553571Y-47521726D01*
X235505952Y-47569345D01*
X235458333Y-47664583D01*
X235458333Y-47902678D01*
X235505952Y-47997916D01*
X235553571Y-48045535D01*
X235648809Y-48093154D01*
X235886904Y-48093154D01*
X235982142Y-48045535D01*
X236029761Y-47997916D01*
X236077380Y-47902678D01*
X236077380Y-47664583D01*
X236029761Y-47569345D01*
X235982142Y-47521726D01*
G04 #@! TO.C,D24*
X226552380Y-26566964D02*
X225552380Y-26566964D01*
X225552380Y-26805059D01*
X225600000Y-26947916D01*
X225695238Y-27043154D01*
X225790476Y-27090773D01*
X225980952Y-27138392D01*
X226123809Y-27138392D01*
X226314285Y-27090773D01*
X226409523Y-27043154D01*
X226504761Y-26947916D01*
X226552380Y-26805059D01*
X226552380Y-26566964D01*
X225647619Y-27519345D02*
X225600000Y-27566964D01*
X225552380Y-27662202D01*
X225552380Y-27900297D01*
X225600000Y-27995535D01*
X225647619Y-28043154D01*
X225742857Y-28090773D01*
X225838095Y-28090773D01*
X225980952Y-28043154D01*
X226552380Y-27471726D01*
X226552380Y-28090773D01*
X225885714Y-28947916D02*
X226552380Y-28947916D01*
X225504761Y-28709821D02*
X226219047Y-28471726D01*
X226219047Y-29090773D01*
G04 #@! TO.C,D23*
X193214880Y-83716964D02*
X192214880Y-83716964D01*
X192214880Y-83955059D01*
X192262500Y-84097916D01*
X192357738Y-84193154D01*
X192452976Y-84240773D01*
X192643452Y-84288392D01*
X192786309Y-84288392D01*
X192976785Y-84240773D01*
X193072023Y-84193154D01*
X193167261Y-84097916D01*
X193214880Y-83955059D01*
X193214880Y-83716964D01*
X192310119Y-84669345D02*
X192262500Y-84716964D01*
X192214880Y-84812202D01*
X192214880Y-85050297D01*
X192262500Y-85145535D01*
X192310119Y-85193154D01*
X192405357Y-85240773D01*
X192500595Y-85240773D01*
X192643452Y-85193154D01*
X193214880Y-84621726D01*
X193214880Y-85240773D01*
X192214880Y-85574107D02*
X192214880Y-86193154D01*
X192595833Y-85859821D01*
X192595833Y-86002678D01*
X192643452Y-86097916D01*
X192691071Y-86145535D01*
X192786309Y-86193154D01*
X193024404Y-86193154D01*
X193119642Y-86145535D01*
X193167261Y-86097916D01*
X193214880Y-86002678D01*
X193214880Y-85716964D01*
X193167261Y-85621726D01*
X193119642Y-85574107D01*
G04 #@! TO.C,D22*
X202739880Y-64666964D02*
X201739880Y-64666964D01*
X201739880Y-64905059D01*
X201787500Y-65047916D01*
X201882738Y-65143154D01*
X201977976Y-65190773D01*
X202168452Y-65238392D01*
X202311309Y-65238392D01*
X202501785Y-65190773D01*
X202597023Y-65143154D01*
X202692261Y-65047916D01*
X202739880Y-64905059D01*
X202739880Y-64666964D01*
X201835119Y-65619345D02*
X201787500Y-65666964D01*
X201739880Y-65762202D01*
X201739880Y-66000297D01*
X201787500Y-66095535D01*
X201835119Y-66143154D01*
X201930357Y-66190773D01*
X202025595Y-66190773D01*
X202168452Y-66143154D01*
X202739880Y-65571726D01*
X202739880Y-66190773D01*
X201835119Y-66571726D02*
X201787500Y-66619345D01*
X201739880Y-66714583D01*
X201739880Y-66952678D01*
X201787500Y-67047916D01*
X201835119Y-67095535D01*
X201930357Y-67143154D01*
X202025595Y-67143154D01*
X202168452Y-67095535D01*
X202739880Y-66524107D01*
X202739880Y-67143154D01*
G04 #@! TO.C,D21*
X197977380Y-45616964D02*
X196977380Y-45616964D01*
X196977380Y-45855059D01*
X197025000Y-45997916D01*
X197120238Y-46093154D01*
X197215476Y-46140773D01*
X197405952Y-46188392D01*
X197548809Y-46188392D01*
X197739285Y-46140773D01*
X197834523Y-46093154D01*
X197929761Y-45997916D01*
X197977380Y-45855059D01*
X197977380Y-45616964D01*
X197072619Y-46569345D02*
X197025000Y-46616964D01*
X196977380Y-46712202D01*
X196977380Y-46950297D01*
X197025000Y-47045535D01*
X197072619Y-47093154D01*
X197167857Y-47140773D01*
X197263095Y-47140773D01*
X197405952Y-47093154D01*
X197977380Y-46521726D01*
X197977380Y-47140773D01*
X197977380Y-48093154D02*
X197977380Y-47521726D01*
X197977380Y-47807440D02*
X196977380Y-47807440D01*
X197120238Y-47712202D01*
X197215476Y-47616964D01*
X197263095Y-47521726D01*
G04 #@! TO.C,D20*
X188452380Y-26566964D02*
X187452380Y-26566964D01*
X187452380Y-26805059D01*
X187500000Y-26947916D01*
X187595238Y-27043154D01*
X187690476Y-27090773D01*
X187880952Y-27138392D01*
X188023809Y-27138392D01*
X188214285Y-27090773D01*
X188309523Y-27043154D01*
X188404761Y-26947916D01*
X188452380Y-26805059D01*
X188452380Y-26566964D01*
X187547619Y-27519345D02*
X187500000Y-27566964D01*
X187452380Y-27662202D01*
X187452380Y-27900297D01*
X187500000Y-27995535D01*
X187547619Y-28043154D01*
X187642857Y-28090773D01*
X187738095Y-28090773D01*
X187880952Y-28043154D01*
X188452380Y-27471726D01*
X188452380Y-28090773D01*
X187452380Y-28709821D02*
X187452380Y-28805059D01*
X187500000Y-28900297D01*
X187547619Y-28947916D01*
X187642857Y-28995535D01*
X187833333Y-29043154D01*
X188071428Y-29043154D01*
X188261904Y-28995535D01*
X188357142Y-28947916D01*
X188404761Y-28900297D01*
X188452380Y-28805059D01*
X188452380Y-28709821D01*
X188404761Y-28614583D01*
X188357142Y-28566964D01*
X188261904Y-28519345D01*
X188071428Y-28471726D01*
X187833333Y-28471726D01*
X187642857Y-28519345D01*
X187547619Y-28566964D01*
X187500000Y-28614583D01*
X187452380Y-28709821D01*
G04 #@! TO.C,D19*
X160671130Y-102766964D02*
X159671130Y-102766964D01*
X159671130Y-103005059D01*
X159718750Y-103147916D01*
X159813988Y-103243154D01*
X159909226Y-103290773D01*
X160099702Y-103338392D01*
X160242559Y-103338392D01*
X160433035Y-103290773D01*
X160528273Y-103243154D01*
X160623511Y-103147916D01*
X160671130Y-103005059D01*
X160671130Y-102766964D01*
X160671130Y-104290773D02*
X160671130Y-103719345D01*
X160671130Y-104005059D02*
X159671130Y-104005059D01*
X159813988Y-103909821D01*
X159909226Y-103814583D01*
X159956845Y-103719345D01*
X160671130Y-104766964D02*
X160671130Y-104957440D01*
X160623511Y-105052678D01*
X160575892Y-105100297D01*
X160433035Y-105195535D01*
X160242559Y-105243154D01*
X159861607Y-105243154D01*
X159766369Y-105195535D01*
X159718750Y-105147916D01*
X159671130Y-105052678D01*
X159671130Y-104862202D01*
X159718750Y-104766964D01*
X159766369Y-104719345D01*
X159861607Y-104671726D01*
X160099702Y-104671726D01*
X160194940Y-104719345D01*
X160242559Y-104766964D01*
X160290178Y-104862202D01*
X160290178Y-105052678D01*
X160242559Y-105147916D01*
X160194940Y-105195535D01*
X160099702Y-105243154D01*
G04 #@! TO.C,D18*
X155114880Y-83716964D02*
X154114880Y-83716964D01*
X154114880Y-83955059D01*
X154162500Y-84097916D01*
X154257738Y-84193154D01*
X154352976Y-84240773D01*
X154543452Y-84288392D01*
X154686309Y-84288392D01*
X154876785Y-84240773D01*
X154972023Y-84193154D01*
X155067261Y-84097916D01*
X155114880Y-83955059D01*
X155114880Y-83716964D01*
X155114880Y-85240773D02*
X155114880Y-84669345D01*
X155114880Y-84955059D02*
X154114880Y-84955059D01*
X154257738Y-84859821D01*
X154352976Y-84764583D01*
X154400595Y-84669345D01*
X154543452Y-85812202D02*
X154495833Y-85716964D01*
X154448214Y-85669345D01*
X154352976Y-85621726D01*
X154305357Y-85621726D01*
X154210119Y-85669345D01*
X154162500Y-85716964D01*
X154114880Y-85812202D01*
X154114880Y-86002678D01*
X154162500Y-86097916D01*
X154210119Y-86145535D01*
X154305357Y-86193154D01*
X154352976Y-86193154D01*
X154448214Y-86145535D01*
X154495833Y-86097916D01*
X154543452Y-86002678D01*
X154543452Y-85812202D01*
X154591071Y-85716964D01*
X154638690Y-85669345D01*
X154733928Y-85621726D01*
X154924404Y-85621726D01*
X155019642Y-85669345D01*
X155067261Y-85716964D01*
X155114880Y-85812202D01*
X155114880Y-86002678D01*
X155067261Y-86097916D01*
X155019642Y-86145535D01*
X154924404Y-86193154D01*
X154733928Y-86193154D01*
X154638690Y-86145535D01*
X154591071Y-86097916D01*
X154543452Y-86002678D01*
G04 #@! TO.C,D17*
X164639880Y-64666964D02*
X163639880Y-64666964D01*
X163639880Y-64905059D01*
X163687500Y-65047916D01*
X163782738Y-65143154D01*
X163877976Y-65190773D01*
X164068452Y-65238392D01*
X164211309Y-65238392D01*
X164401785Y-65190773D01*
X164497023Y-65143154D01*
X164592261Y-65047916D01*
X164639880Y-64905059D01*
X164639880Y-64666964D01*
X164639880Y-66190773D02*
X164639880Y-65619345D01*
X164639880Y-65905059D02*
X163639880Y-65905059D01*
X163782738Y-65809821D01*
X163877976Y-65714583D01*
X163925595Y-65619345D01*
X163639880Y-66524107D02*
X163639880Y-67190773D01*
X164639880Y-66762202D01*
G04 #@! TO.C,D16*
X159877380Y-45616964D02*
X158877380Y-45616964D01*
X158877380Y-45855059D01*
X158925000Y-45997916D01*
X159020238Y-46093154D01*
X159115476Y-46140773D01*
X159305952Y-46188392D01*
X159448809Y-46188392D01*
X159639285Y-46140773D01*
X159734523Y-46093154D01*
X159829761Y-45997916D01*
X159877380Y-45855059D01*
X159877380Y-45616964D01*
X159877380Y-47140773D02*
X159877380Y-46569345D01*
X159877380Y-46855059D02*
X158877380Y-46855059D01*
X159020238Y-46759821D01*
X159115476Y-46664583D01*
X159163095Y-46569345D01*
X158877380Y-47997916D02*
X158877380Y-47807440D01*
X158925000Y-47712202D01*
X158972619Y-47664583D01*
X159115476Y-47569345D01*
X159305952Y-47521726D01*
X159686904Y-47521726D01*
X159782142Y-47569345D01*
X159829761Y-47616964D01*
X159877380Y-47712202D01*
X159877380Y-47902678D01*
X159829761Y-47997916D01*
X159782142Y-48045535D01*
X159686904Y-48093154D01*
X159448809Y-48093154D01*
X159353571Y-48045535D01*
X159305952Y-47997916D01*
X159258333Y-47902678D01*
X159258333Y-47712202D01*
X159305952Y-47616964D01*
X159353571Y-47569345D01*
X159448809Y-47521726D01*
G04 #@! TO.C,D15*
X150352380Y-26566964D02*
X149352380Y-26566964D01*
X149352380Y-26805059D01*
X149400000Y-26947916D01*
X149495238Y-27043154D01*
X149590476Y-27090773D01*
X149780952Y-27138392D01*
X149923809Y-27138392D01*
X150114285Y-27090773D01*
X150209523Y-27043154D01*
X150304761Y-26947916D01*
X150352380Y-26805059D01*
X150352380Y-26566964D01*
X150352380Y-28090773D02*
X150352380Y-27519345D01*
X150352380Y-27805059D02*
X149352380Y-27805059D01*
X149495238Y-27709821D01*
X149590476Y-27614583D01*
X149638095Y-27519345D01*
X149352380Y-28995535D02*
X149352380Y-28519345D01*
X149828571Y-28471726D01*
X149780952Y-28519345D01*
X149733333Y-28614583D01*
X149733333Y-28852678D01*
X149780952Y-28947916D01*
X149828571Y-28995535D01*
X149923809Y-29043154D01*
X150161904Y-29043154D01*
X150257142Y-28995535D01*
X150304761Y-28947916D01*
X150352380Y-28852678D01*
X150352380Y-28614583D01*
X150304761Y-28519345D01*
X150257142Y-28471726D01*
G04 #@! TO.C,D14*
X117014880Y-83510714D02*
X116014880Y-83510714D01*
X116014880Y-83748809D01*
X116062500Y-83891666D01*
X116157738Y-83986904D01*
X116252976Y-84034523D01*
X116443452Y-84082142D01*
X116586309Y-84082142D01*
X116776785Y-84034523D01*
X116872023Y-83986904D01*
X116967261Y-83891666D01*
X117014880Y-83748809D01*
X117014880Y-83510714D01*
X117014880Y-85034523D02*
X117014880Y-84463095D01*
X117014880Y-84748809D02*
X116014880Y-84748809D01*
X116157738Y-84653571D01*
X116252976Y-84558333D01*
X116300595Y-84463095D01*
X116348214Y-85891666D02*
X117014880Y-85891666D01*
X115967261Y-85653571D02*
X116681547Y-85415476D01*
X116681547Y-86034523D01*
G04 #@! TO.C,D13*
X126539880Y-64666964D02*
X125539880Y-64666964D01*
X125539880Y-64905059D01*
X125587500Y-65047916D01*
X125682738Y-65143154D01*
X125777976Y-65190773D01*
X125968452Y-65238392D01*
X126111309Y-65238392D01*
X126301785Y-65190773D01*
X126397023Y-65143154D01*
X126492261Y-65047916D01*
X126539880Y-64905059D01*
X126539880Y-64666964D01*
X126539880Y-66190773D02*
X126539880Y-65619345D01*
X126539880Y-65905059D02*
X125539880Y-65905059D01*
X125682738Y-65809821D01*
X125777976Y-65714583D01*
X125825595Y-65619345D01*
X125539880Y-66524107D02*
X125539880Y-67143154D01*
X125920833Y-66809821D01*
X125920833Y-66952678D01*
X125968452Y-67047916D01*
X126016071Y-67095535D01*
X126111309Y-67143154D01*
X126349404Y-67143154D01*
X126444642Y-67095535D01*
X126492261Y-67047916D01*
X126539880Y-66952678D01*
X126539880Y-66666964D01*
X126492261Y-66571726D01*
X126444642Y-66524107D01*
G04 #@! TO.C,D12*
X121777380Y-45616964D02*
X120777380Y-45616964D01*
X120777380Y-45855059D01*
X120825000Y-45997916D01*
X120920238Y-46093154D01*
X121015476Y-46140773D01*
X121205952Y-46188392D01*
X121348809Y-46188392D01*
X121539285Y-46140773D01*
X121634523Y-46093154D01*
X121729761Y-45997916D01*
X121777380Y-45855059D01*
X121777380Y-45616964D01*
X121777380Y-47140773D02*
X121777380Y-46569345D01*
X121777380Y-46855059D02*
X120777380Y-46855059D01*
X120920238Y-46759821D01*
X121015476Y-46664583D01*
X121063095Y-46569345D01*
X120872619Y-47521726D02*
X120825000Y-47569345D01*
X120777380Y-47664583D01*
X120777380Y-47902678D01*
X120825000Y-47997916D01*
X120872619Y-48045535D01*
X120967857Y-48093154D01*
X121063095Y-48093154D01*
X121205952Y-48045535D01*
X121777380Y-47474107D01*
X121777380Y-48093154D01*
G04 #@! TO.C,D11*
X112252380Y-26566964D02*
X111252380Y-26566964D01*
X111252380Y-26805059D01*
X111300000Y-26947916D01*
X111395238Y-27043154D01*
X111490476Y-27090773D01*
X111680952Y-27138392D01*
X111823809Y-27138392D01*
X112014285Y-27090773D01*
X112109523Y-27043154D01*
X112204761Y-26947916D01*
X112252380Y-26805059D01*
X112252380Y-26566964D01*
X112252380Y-28090773D02*
X112252380Y-27519345D01*
X112252380Y-27805059D02*
X111252380Y-27805059D01*
X111395238Y-27709821D01*
X111490476Y-27614583D01*
X111538095Y-27519345D01*
X112252380Y-29043154D02*
X112252380Y-28471726D01*
X112252380Y-28757440D02*
X111252380Y-28757440D01*
X111395238Y-28662202D01*
X111490476Y-28566964D01*
X111538095Y-28471726D01*
G04 #@! TO.C,D10*
X88596130Y-102560714D02*
X87596130Y-102560714D01*
X87596130Y-102798809D01*
X87643750Y-102941666D01*
X87738988Y-103036904D01*
X87834226Y-103084523D01*
X88024702Y-103132142D01*
X88167559Y-103132142D01*
X88358035Y-103084523D01*
X88453273Y-103036904D01*
X88548511Y-102941666D01*
X88596130Y-102798809D01*
X88596130Y-102560714D01*
X88596130Y-104084523D02*
X88596130Y-103513095D01*
X88596130Y-103798809D02*
X87596130Y-103798809D01*
X87738988Y-103703571D01*
X87834226Y-103608333D01*
X87881845Y-103513095D01*
X87596130Y-104703571D02*
X87596130Y-104798809D01*
X87643750Y-104894047D01*
X87691369Y-104941666D01*
X87786607Y-104989285D01*
X87977083Y-105036904D01*
X88215178Y-105036904D01*
X88405654Y-104989285D01*
X88500892Y-104941666D01*
X88548511Y-104894047D01*
X88596130Y-104798809D01*
X88596130Y-104703571D01*
X88548511Y-104608333D01*
X88500892Y-104560714D01*
X88405654Y-104513095D01*
X88215178Y-104465476D01*
X87977083Y-104465476D01*
X87786607Y-104513095D01*
X87691369Y-104560714D01*
X87643750Y-104608333D01*
X87596130Y-104703571D01*
G04 #@! TO.C,D9*
X78914880Y-84193154D02*
X77914880Y-84193154D01*
X77914880Y-84431250D01*
X77962500Y-84574107D01*
X78057738Y-84669345D01*
X78152976Y-84716964D01*
X78343452Y-84764583D01*
X78486309Y-84764583D01*
X78676785Y-84716964D01*
X78772023Y-84669345D01*
X78867261Y-84574107D01*
X78914880Y-84431250D01*
X78914880Y-84193154D01*
X78914880Y-85240773D02*
X78914880Y-85431250D01*
X78867261Y-85526488D01*
X78819642Y-85574107D01*
X78676785Y-85669345D01*
X78486309Y-85716964D01*
X78105357Y-85716964D01*
X78010119Y-85669345D01*
X77962500Y-85621726D01*
X77914880Y-85526488D01*
X77914880Y-85336011D01*
X77962500Y-85240773D01*
X78010119Y-85193154D01*
X78105357Y-85145535D01*
X78343452Y-85145535D01*
X78438690Y-85193154D01*
X78486309Y-85240773D01*
X78533928Y-85336011D01*
X78533928Y-85526488D01*
X78486309Y-85621726D01*
X78438690Y-85669345D01*
X78343452Y-85716964D01*
G04 #@! TO.C,D8*
X88439880Y-65143154D02*
X87439880Y-65143154D01*
X87439880Y-65381250D01*
X87487500Y-65524107D01*
X87582738Y-65619345D01*
X87677976Y-65666964D01*
X87868452Y-65714583D01*
X88011309Y-65714583D01*
X88201785Y-65666964D01*
X88297023Y-65619345D01*
X88392261Y-65524107D01*
X88439880Y-65381250D01*
X88439880Y-65143154D01*
X87868452Y-66286011D02*
X87820833Y-66190773D01*
X87773214Y-66143154D01*
X87677976Y-66095535D01*
X87630357Y-66095535D01*
X87535119Y-66143154D01*
X87487500Y-66190773D01*
X87439880Y-66286011D01*
X87439880Y-66476488D01*
X87487500Y-66571726D01*
X87535119Y-66619345D01*
X87630357Y-66666964D01*
X87677976Y-66666964D01*
X87773214Y-66619345D01*
X87820833Y-66571726D01*
X87868452Y-66476488D01*
X87868452Y-66286011D01*
X87916071Y-66190773D01*
X87963690Y-66143154D01*
X88058928Y-66095535D01*
X88249404Y-66095535D01*
X88344642Y-66143154D01*
X88392261Y-66190773D01*
X88439880Y-66286011D01*
X88439880Y-66476488D01*
X88392261Y-66571726D01*
X88344642Y-66619345D01*
X88249404Y-66666964D01*
X88058928Y-66666964D01*
X87963690Y-66619345D01*
X87916071Y-66571726D01*
X87868452Y-66476488D01*
G04 #@! TO.C,D7*
X83677380Y-46093154D02*
X82677380Y-46093154D01*
X82677380Y-46331250D01*
X82725000Y-46474107D01*
X82820238Y-46569345D01*
X82915476Y-46616964D01*
X83105952Y-46664583D01*
X83248809Y-46664583D01*
X83439285Y-46616964D01*
X83534523Y-46569345D01*
X83629761Y-46474107D01*
X83677380Y-46331250D01*
X83677380Y-46093154D01*
X82677380Y-46997916D02*
X82677380Y-47664583D01*
X83677380Y-47236011D01*
G04 #@! TO.C,D6*
X74152380Y-27043154D02*
X73152380Y-27043154D01*
X73152380Y-27281250D01*
X73200000Y-27424107D01*
X73295238Y-27519345D01*
X73390476Y-27566964D01*
X73580952Y-27614583D01*
X73723809Y-27614583D01*
X73914285Y-27566964D01*
X74009523Y-27519345D01*
X74104761Y-27424107D01*
X74152380Y-27281250D01*
X74152380Y-27043154D01*
X73152380Y-28471726D02*
X73152380Y-28281250D01*
X73200000Y-28186011D01*
X73247619Y-28138392D01*
X73390476Y-28043154D01*
X73580952Y-27995535D01*
X73961904Y-27995535D01*
X74057142Y-28043154D01*
X74104761Y-28090773D01*
X74152380Y-28186011D01*
X74152380Y-28376488D01*
X74104761Y-28471726D01*
X74057142Y-28519345D01*
X73961904Y-28566964D01*
X73723809Y-28566964D01*
X73628571Y-28519345D01*
X73580952Y-28471726D01*
X73533333Y-28376488D01*
X73533333Y-28186011D01*
X73580952Y-28090773D01*
X73628571Y-28043154D01*
X73723809Y-27995535D01*
G04 #@! TO.C,D5*
X40814880Y-103243154D02*
X39814880Y-103243154D01*
X39814880Y-103481250D01*
X39862500Y-103624107D01*
X39957738Y-103719345D01*
X40052976Y-103766964D01*
X40243452Y-103814583D01*
X40386309Y-103814583D01*
X40576785Y-103766964D01*
X40672023Y-103719345D01*
X40767261Y-103624107D01*
X40814880Y-103481250D01*
X40814880Y-103243154D01*
X39814880Y-104719345D02*
X39814880Y-104243154D01*
X40291071Y-104195535D01*
X40243452Y-104243154D01*
X40195833Y-104338392D01*
X40195833Y-104576488D01*
X40243452Y-104671726D01*
X40291071Y-104719345D01*
X40386309Y-104766964D01*
X40624404Y-104766964D01*
X40719642Y-104719345D01*
X40767261Y-104671726D01*
X40814880Y-104576488D01*
X40814880Y-104338392D01*
X40767261Y-104243154D01*
X40719642Y-104195535D01*
G04 #@! TO.C,D4*
X59864880Y-84193154D02*
X58864880Y-84193154D01*
X58864880Y-84431250D01*
X58912500Y-84574107D01*
X59007738Y-84669345D01*
X59102976Y-84716964D01*
X59293452Y-84764583D01*
X59436309Y-84764583D01*
X59626785Y-84716964D01*
X59722023Y-84669345D01*
X59817261Y-84574107D01*
X59864880Y-84431250D01*
X59864880Y-84193154D01*
X59198214Y-85621726D02*
X59864880Y-85621726D01*
X58817261Y-85383630D02*
X59531547Y-85145535D01*
X59531547Y-85764583D01*
G04 #@! TO.C,D3*
X47164880Y-65143154D02*
X46164880Y-65143154D01*
X46164880Y-65381250D01*
X46212500Y-65524107D01*
X46307738Y-65619345D01*
X46402976Y-65666964D01*
X46593452Y-65714583D01*
X46736309Y-65714583D01*
X46926785Y-65666964D01*
X47022023Y-65619345D01*
X47117261Y-65524107D01*
X47164880Y-65381250D01*
X47164880Y-65143154D01*
X46164880Y-66047916D02*
X46164880Y-66666964D01*
X46545833Y-66333630D01*
X46545833Y-66476488D01*
X46593452Y-66571726D01*
X46641071Y-66619345D01*
X46736309Y-66666964D01*
X46974404Y-66666964D01*
X47069642Y-66619345D01*
X47117261Y-66571726D01*
X47164880Y-66476488D01*
X47164880Y-66190773D01*
X47117261Y-66095535D01*
X47069642Y-66047916D01*
G04 #@! TO.C,D2*
X43196130Y-46093154D02*
X42196130Y-46093154D01*
X42196130Y-46331250D01*
X42243750Y-46474107D01*
X42338988Y-46569345D01*
X42434226Y-46616964D01*
X42624702Y-46664583D01*
X42767559Y-46664583D01*
X42958035Y-46616964D01*
X43053273Y-46569345D01*
X43148511Y-46474107D01*
X43196130Y-46331250D01*
X43196130Y-46093154D01*
X42291369Y-47045535D02*
X42243750Y-47093154D01*
X42196130Y-47188392D01*
X42196130Y-47426488D01*
X42243750Y-47521726D01*
X42291369Y-47569345D01*
X42386607Y-47616964D01*
X42481845Y-47616964D01*
X42624702Y-47569345D01*
X43196130Y-46997916D01*
X43196130Y-47616964D01*
G04 #@! TO.C,D1*
X36052380Y-27043154D02*
X35052380Y-27043154D01*
X35052380Y-27281250D01*
X35100000Y-27424107D01*
X35195238Y-27519345D01*
X35290476Y-27566964D01*
X35480952Y-27614583D01*
X35623809Y-27614583D01*
X35814285Y-27566964D01*
X35909523Y-27519345D01*
X36004761Y-27424107D01*
X36052380Y-27281250D01*
X36052380Y-27043154D01*
X36052380Y-28566964D02*
X36052380Y-27995535D01*
X36052380Y-28281250D02*
X35052380Y-28281250D01*
X35195238Y-28186011D01*
X35290476Y-28090773D01*
X35338095Y-27995535D01*
G04 #@! TD*
M02*
