G04 #@! TF.GenerationSoftware,KiCad,Pcbnew,(5.1.10)-1*
G04 #@! TF.CreationDate,2021-07-26T23:03:21+09:00*
G04 #@! TF.ProjectId,Snacks65,536e6163-6b73-4363-952e-6b696361645f,rev?*
G04 #@! TF.SameCoordinates,Original*
G04 #@! TF.FileFunction,Soldermask,Bot*
G04 #@! TF.FilePolarity,Negative*
%FSLAX46Y46*%
G04 Gerber Fmt 4.6, Leading zero omitted, Abs format (unit mm)*
G04 Created by KiCad (PCBNEW (5.1.10)-1) date 2021-07-26 23:03:21*
%MOMM*%
%LPD*%
G01*
G04 APERTURE LIST*
%ADD10O,1.900000X1.500000*%
%ADD11C,1.600000*%
%ADD12R,1.600000X1.600000*%
%ADD13R,1.300000X0.300000*%
%ADD14R,2.200000X1.800000*%
%ADD15C,1.750000*%
%ADD16C,2.250000*%
%ADD17C,3.987800*%
%ADD18C,3.048000*%
%ADD19R,0.800000X0.900000*%
G04 APERTURE END LIST*
D10*
G04 #@! TO.C,SW1*
X346868750Y-19843750D03*
X344368750Y-19843750D03*
X349368750Y-19843750D03*
G04 #@! TD*
D11*
G04 #@! TO.C,A1*
X313848750Y-62706250D03*
X313848750Y-60166250D03*
X313848750Y-57626250D03*
X313848750Y-55086250D03*
X313848750Y-52546250D03*
X313848750Y-50006250D03*
X313848750Y-47466250D03*
X313848750Y-44926250D03*
X313848750Y-42386250D03*
X313848750Y-39846250D03*
X313848750Y-37306250D03*
X313848750Y-34766250D03*
D12*
X334168750Y-24606250D03*
D11*
X334168750Y-27146250D03*
X334168750Y-29686250D03*
X334168750Y-32226250D03*
X334168750Y-34766250D03*
X334168750Y-37306250D03*
X334168750Y-39846250D03*
X334168750Y-42386250D03*
X334168750Y-44926250D03*
X334168750Y-47466250D03*
X334168750Y-50006250D03*
X334168750Y-52546250D03*
X334168750Y-55086250D03*
X334168750Y-57626250D03*
X334168750Y-60166250D03*
X334168750Y-62706250D03*
G04 #@! TD*
D13*
G04 #@! TO.C,J1*
X342637500Y-43318750D03*
X342637500Y-42818750D03*
X342637500Y-42318750D03*
X342637500Y-41818750D03*
X342637500Y-41318750D03*
X342637500Y-40818750D03*
D14*
X345887500Y-38918750D03*
X345887500Y-45218750D03*
G04 #@! TD*
D15*
G04 #@! TO.C,SW60*
X250348750Y-105568750D03*
X240188750Y-105568750D03*
D16*
X242768750Y-101568750D03*
D17*
X245268750Y-105568750D03*
G36*
G01*
X240707438Y-103866100D02*
X240707433Y-103866095D01*
G75*
G02*
X240621405Y-102277433I751317J837345D01*
G01*
X241931407Y-100817433D01*
G75*
G02*
X243520069Y-100731405I837345J-751317D01*
G01*
X243520069Y-100731405D01*
G75*
G02*
X243606097Y-102320067I-751317J-837345D01*
G01*
X242296095Y-103780067D01*
G75*
G02*
X240707433Y-103866095I-837345J751317D01*
G01*
G37*
D16*
X247808750Y-100488750D03*
G36*
G01*
X247692233Y-102191145D02*
X247691347Y-102191084D01*
G75*
G02*
X246646416Y-100991347I77403J1122334D01*
G01*
X246686416Y-100411347D01*
G75*
G02*
X247886153Y-99366416I1122334J-77403D01*
G01*
X247886153Y-99366416D01*
G75*
G02*
X248931084Y-100566153I-77403J-1122334D01*
G01*
X248891084Y-101146153D01*
G75*
G02*
X247691347Y-102191084I-1122334J77403D01*
G01*
G37*
G04 #@! TD*
D15*
G04 #@! TO.C,SW64*
X274161250Y-105568750D03*
X264001250Y-105568750D03*
D16*
X266581250Y-101568750D03*
D17*
X269081250Y-105568750D03*
G36*
G01*
X264519938Y-103866100D02*
X264519933Y-103866095D01*
G75*
G02*
X264433905Y-102277433I751317J837345D01*
G01*
X265743907Y-100817433D01*
G75*
G02*
X267332569Y-100731405I837345J-751317D01*
G01*
X267332569Y-100731405D01*
G75*
G02*
X267418597Y-102320067I-751317J-837345D01*
G01*
X266108595Y-103780067D01*
G75*
G02*
X264519933Y-103866095I-837345J751317D01*
G01*
G37*
D16*
X271621250Y-100488750D03*
G36*
G01*
X271504733Y-102191145D02*
X271503847Y-102191084D01*
G75*
G02*
X270458916Y-100991347I77403J1122334D01*
G01*
X270498916Y-100411347D01*
G75*
G02*
X271698653Y-99366416I1122334J-77403D01*
G01*
X271698653Y-99366416D01*
G75*
G02*
X272743584Y-100566153I-77403J-1122334D01*
G01*
X272703584Y-101146153D01*
G75*
G02*
X271503847Y-102191084I-1122334J77403D01*
G01*
G37*
G04 #@! TD*
D15*
G04 #@! TO.C,SW55*
X226536250Y-105568750D03*
X216376250Y-105568750D03*
D16*
X218956250Y-101568750D03*
D17*
X221456250Y-105568750D03*
G36*
G01*
X216894938Y-103866100D02*
X216894933Y-103866095D01*
G75*
G02*
X216808905Y-102277433I751317J837345D01*
G01*
X218118907Y-100817433D01*
G75*
G02*
X219707569Y-100731405I837345J-751317D01*
G01*
X219707569Y-100731405D01*
G75*
G02*
X219793597Y-102320067I-751317J-837345D01*
G01*
X218483595Y-103780067D01*
G75*
G02*
X216894933Y-103866095I-837345J751317D01*
G01*
G37*
D16*
X223996250Y-100488750D03*
G36*
G01*
X223879733Y-102191145D02*
X223878847Y-102191084D01*
G75*
G02*
X222833916Y-100991347I77403J1122334D01*
G01*
X222873916Y-100411347D01*
G75*
G02*
X224073653Y-99366416I1122334J-77403D01*
G01*
X224073653Y-99366416D01*
G75*
G02*
X225118584Y-100566153I-77403J-1122334D01*
G01*
X225078584Y-101146153D01*
G75*
G02*
X223878847Y-102191084I-1122334J77403D01*
G01*
G37*
G04 #@! TD*
D17*
G04 #@! TO.C,SW68*
X297688000Y-21113750D03*
X273812000Y-21113750D03*
D18*
X297688000Y-36353750D03*
X273812000Y-36353750D03*
D15*
X290830000Y-29368750D03*
X280670000Y-29368750D03*
D16*
X283250000Y-25368750D03*
D17*
X285750000Y-29368750D03*
G36*
G01*
X281188688Y-27666100D02*
X281188683Y-27666095D01*
G75*
G02*
X281102655Y-26077433I751317J837345D01*
G01*
X282412657Y-24617433D01*
G75*
G02*
X284001319Y-24531405I837345J-751317D01*
G01*
X284001319Y-24531405D01*
G75*
G02*
X284087347Y-26120067I-751317J-837345D01*
G01*
X282777345Y-27580067D01*
G75*
G02*
X281188683Y-27666095I-837345J751317D01*
G01*
G37*
D16*
X288290000Y-24288750D03*
G36*
G01*
X288173483Y-25991145D02*
X288172597Y-25991084D01*
G75*
G02*
X287127666Y-24791347I77403J1122334D01*
G01*
X287167666Y-24211347D01*
G75*
G02*
X288367403Y-23166416I1122334J-77403D01*
G01*
X288367403Y-23166416D01*
G75*
G02*
X289412334Y-24366153I-77403J-1122334D01*
G01*
X289372334Y-24946153D01*
G75*
G02*
X288172597Y-25991084I-1122334J77403D01*
G01*
G37*
G04 #@! TD*
D17*
G04 #@! TO.C,SW67*
X290544250Y-78263750D03*
X266668250Y-78263750D03*
D18*
X290544250Y-93503750D03*
X266668250Y-93503750D03*
D15*
X283686250Y-86518750D03*
X273526250Y-86518750D03*
D16*
X276106250Y-82518750D03*
D17*
X278606250Y-86518750D03*
G36*
G01*
X274044938Y-84816100D02*
X274044933Y-84816095D01*
G75*
G02*
X273958905Y-83227433I751317J837345D01*
G01*
X275268907Y-81767433D01*
G75*
G02*
X276857569Y-81681405I837345J-751317D01*
G01*
X276857569Y-81681405D01*
G75*
G02*
X276943597Y-83270067I-751317J-837345D01*
G01*
X275633595Y-84730067D01*
G75*
G02*
X274044933Y-84816095I-837345J751317D01*
G01*
G37*
D16*
X281146250Y-81438750D03*
G36*
G01*
X281029733Y-83141145D02*
X281028847Y-83141084D01*
G75*
G02*
X279983916Y-81941347I77403J1122334D01*
G01*
X280023916Y-81361347D01*
G75*
G02*
X281223653Y-80316416I1122334J-77403D01*
G01*
X281223653Y-80316416D01*
G75*
G02*
X282268584Y-81516153I-77403J-1122334D01*
G01*
X282228584Y-82096153D01*
G75*
G02*
X281028847Y-83141084I-1122334J77403D01*
G01*
G37*
G04 #@! TD*
D17*
G04 #@! TO.C,SW66*
X52419250Y-94773750D03*
X28543250Y-94773750D03*
D18*
X52419250Y-79533750D03*
X28543250Y-79533750D03*
D15*
X45561250Y-86518750D03*
X35401250Y-86518750D03*
D16*
X37981250Y-82518750D03*
D17*
X40481250Y-86518750D03*
G36*
G01*
X35919938Y-84816100D02*
X35919933Y-84816095D01*
G75*
G02*
X35833905Y-83227433I751317J837345D01*
G01*
X37143907Y-81767433D01*
G75*
G02*
X38732569Y-81681405I837345J-751317D01*
G01*
X38732569Y-81681405D01*
G75*
G02*
X38818597Y-83270067I-751317J-837345D01*
G01*
X37508595Y-84730067D01*
G75*
G02*
X35919933Y-84816095I-837345J751317D01*
G01*
G37*
D16*
X43021250Y-81438750D03*
G36*
G01*
X42904733Y-83141145D02*
X42903847Y-83141084D01*
G75*
G02*
X41858916Y-81941347I77403J1122334D01*
G01*
X41898916Y-81361347D01*
G75*
G02*
X43098653Y-80316416I1122334J-77403D01*
G01*
X43098653Y-80316416D01*
G75*
G02*
X44143584Y-81516153I-77403J-1122334D01*
G01*
X44103584Y-82096153D01*
G75*
G02*
X42903847Y-83141084I-1122334J77403D01*
G01*
G37*
G04 #@! TD*
D15*
G04 #@! TO.C,SW63*
X300355000Y-86518750D03*
X290195000Y-86518750D03*
D16*
X292775000Y-82518750D03*
D17*
X295275000Y-86518750D03*
G36*
G01*
X290713688Y-84816100D02*
X290713683Y-84816095D01*
G75*
G02*
X290627655Y-83227433I751317J837345D01*
G01*
X291937657Y-81767433D01*
G75*
G02*
X293526319Y-81681405I837345J-751317D01*
G01*
X293526319Y-81681405D01*
G75*
G02*
X293612347Y-83270067I-751317J-837345D01*
G01*
X292302345Y-84730067D01*
G75*
G02*
X290713683Y-84816095I-837345J751317D01*
G01*
G37*
D16*
X297815000Y-81438750D03*
G36*
G01*
X297698483Y-83141145D02*
X297697597Y-83141084D01*
G75*
G02*
X296652666Y-81941347I77403J1122334D01*
G01*
X296692666Y-81361347D01*
G75*
G02*
X297892403Y-80316416I1122334J-77403D01*
G01*
X297892403Y-80316416D01*
G75*
G02*
X298937334Y-81516153I-77403J-1122334D01*
G01*
X298897334Y-82096153D01*
G75*
G02*
X297697597Y-83141084I-1122334J77403D01*
G01*
G37*
G04 #@! TD*
D15*
G04 #@! TO.C,SW62*
X295592500Y-48418750D03*
X285432500Y-48418750D03*
D16*
X288012500Y-44418750D03*
D17*
X290512500Y-48418750D03*
G36*
G01*
X285951188Y-46716100D02*
X285951183Y-46716095D01*
G75*
G02*
X285865155Y-45127433I751317J837345D01*
G01*
X287175157Y-43667433D01*
G75*
G02*
X288763819Y-43581405I837345J-751317D01*
G01*
X288763819Y-43581405D01*
G75*
G02*
X288849847Y-45170067I-751317J-837345D01*
G01*
X287539845Y-46630067D01*
G75*
G02*
X285951183Y-46716095I-837345J751317D01*
G01*
G37*
D16*
X293052500Y-43338750D03*
G36*
G01*
X292935983Y-45041145D02*
X292935097Y-45041084D01*
G75*
G02*
X291890166Y-43841347I77403J1122334D01*
G01*
X291930166Y-43261347D01*
G75*
G02*
X293129903Y-42216416I1122334J-77403D01*
G01*
X293129903Y-42216416D01*
G75*
G02*
X294174834Y-43416153I-77403J-1122334D01*
G01*
X294134834Y-43996153D01*
G75*
G02*
X292935097Y-45041084I-1122334J77403D01*
G01*
G37*
G04 #@! TD*
D15*
G04 #@! TO.C,SW59*
X274161250Y-86518750D03*
X264001250Y-86518750D03*
D16*
X266581250Y-82518750D03*
D17*
X269081250Y-86518750D03*
G36*
G01*
X264519938Y-84816100D02*
X264519933Y-84816095D01*
G75*
G02*
X264433905Y-83227433I751317J837345D01*
G01*
X265743907Y-81767433D01*
G75*
G02*
X267332569Y-81681405I837345J-751317D01*
G01*
X267332569Y-81681405D01*
G75*
G02*
X267418597Y-83270067I-751317J-837345D01*
G01*
X266108595Y-84730067D01*
G75*
G02*
X264519933Y-84816095I-837345J751317D01*
G01*
G37*
D16*
X271621250Y-81438750D03*
G36*
G01*
X271504733Y-83141145D02*
X271503847Y-83141084D01*
G75*
G02*
X270458916Y-81941347I77403J1122334D01*
G01*
X270498916Y-81361347D01*
G75*
G02*
X271698653Y-80316416I1122334J-77403D01*
G01*
X271698653Y-80316416D01*
G75*
G02*
X272743584Y-81516153I-77403J-1122334D01*
G01*
X272703584Y-82096153D01*
G75*
G02*
X271503847Y-83141084I-1122334J77403D01*
G01*
G37*
G04 #@! TD*
D17*
G04 #@! TO.C,SW58*
X295306750Y-59213750D03*
X271430750Y-59213750D03*
D18*
X295306750Y-74453750D03*
X271430750Y-74453750D03*
D15*
X288448750Y-67468750D03*
X278288750Y-67468750D03*
D16*
X280868750Y-63468750D03*
D17*
X283368750Y-67468750D03*
G36*
G01*
X278807438Y-65766100D02*
X278807433Y-65766095D01*
G75*
G02*
X278721405Y-64177433I751317J837345D01*
G01*
X280031407Y-62717433D01*
G75*
G02*
X281620069Y-62631405I837345J-751317D01*
G01*
X281620069Y-62631405D01*
G75*
G02*
X281706097Y-64220067I-751317J-837345D01*
G01*
X280396095Y-65680067D01*
G75*
G02*
X278807433Y-65766095I-837345J751317D01*
G01*
G37*
D16*
X285908750Y-62388750D03*
G36*
G01*
X285792233Y-64091145D02*
X285791347Y-64091084D01*
G75*
G02*
X284746416Y-62891347I77403J1122334D01*
G01*
X284786416Y-62311347D01*
G75*
G02*
X285986153Y-61266416I1122334J-77403D01*
G01*
X285986153Y-61266416D01*
G75*
G02*
X287031084Y-62466153I-77403J-1122334D01*
G01*
X286991084Y-63046153D01*
G75*
G02*
X285791347Y-64091084I-1122334J77403D01*
G01*
G37*
G04 #@! TD*
D15*
G04 #@! TO.C,SW57*
X271780000Y-48418750D03*
X261620000Y-48418750D03*
D16*
X264200000Y-44418750D03*
D17*
X266700000Y-48418750D03*
G36*
G01*
X262138688Y-46716100D02*
X262138683Y-46716095D01*
G75*
G02*
X262052655Y-45127433I751317J837345D01*
G01*
X263362657Y-43667433D01*
G75*
G02*
X264951319Y-43581405I837345J-751317D01*
G01*
X264951319Y-43581405D01*
G75*
G02*
X265037347Y-45170067I-751317J-837345D01*
G01*
X263727345Y-46630067D01*
G75*
G02*
X262138683Y-46716095I-837345J751317D01*
G01*
G37*
D16*
X269240000Y-43338750D03*
G36*
G01*
X269123483Y-45041145D02*
X269122597Y-45041084D01*
G75*
G02*
X268077666Y-43841347I77403J1122334D01*
G01*
X268117666Y-43261347D01*
G75*
G02*
X269317403Y-42216416I1122334J-77403D01*
G01*
X269317403Y-42216416D01*
G75*
G02*
X270362334Y-43416153I-77403J-1122334D01*
G01*
X270322334Y-43996153D01*
G75*
G02*
X269122597Y-45041084I-1122334J77403D01*
G01*
G37*
G04 #@! TD*
D15*
G04 #@! TO.C,SW56*
X262255000Y-29368750D03*
X252095000Y-29368750D03*
D16*
X254675000Y-25368750D03*
D17*
X257175000Y-29368750D03*
G36*
G01*
X252613688Y-27666100D02*
X252613683Y-27666095D01*
G75*
G02*
X252527655Y-26077433I751317J837345D01*
G01*
X253837657Y-24617433D01*
G75*
G02*
X255426319Y-24531405I837345J-751317D01*
G01*
X255426319Y-24531405D01*
G75*
G02*
X255512347Y-26120067I-751317J-837345D01*
G01*
X254202345Y-27580067D01*
G75*
G02*
X252613683Y-27666095I-837345J751317D01*
G01*
G37*
D16*
X259715000Y-24288750D03*
G36*
G01*
X259598483Y-25991145D02*
X259597597Y-25991084D01*
G75*
G02*
X258552666Y-24791347I77403J1122334D01*
G01*
X258592666Y-24211347D01*
G75*
G02*
X259792403Y-23166416I1122334J-77403D01*
G01*
X259792403Y-23166416D01*
G75*
G02*
X260837334Y-24366153I-77403J-1122334D01*
G01*
X260797334Y-24946153D01*
G75*
G02*
X259597597Y-25991084I-1122334J77403D01*
G01*
G37*
G04 #@! TD*
D15*
G04 #@! TO.C,SW54*
X247967500Y-86518750D03*
X237807500Y-86518750D03*
D16*
X240387500Y-82518750D03*
D17*
X242887500Y-86518750D03*
G36*
G01*
X238326188Y-84816100D02*
X238326183Y-84816095D01*
G75*
G02*
X238240155Y-83227433I751317J837345D01*
G01*
X239550157Y-81767433D01*
G75*
G02*
X241138819Y-81681405I837345J-751317D01*
G01*
X241138819Y-81681405D01*
G75*
G02*
X241224847Y-83270067I-751317J-837345D01*
G01*
X239914845Y-84730067D01*
G75*
G02*
X238326183Y-84816095I-837345J751317D01*
G01*
G37*
D16*
X245427500Y-81438750D03*
G36*
G01*
X245310983Y-83141145D02*
X245310097Y-83141084D01*
G75*
G02*
X244265166Y-81941347I77403J1122334D01*
G01*
X244305166Y-81361347D01*
G75*
G02*
X245504903Y-80316416I1122334J-77403D01*
G01*
X245504903Y-80316416D01*
G75*
G02*
X246549834Y-81516153I-77403J-1122334D01*
G01*
X246509834Y-82096153D01*
G75*
G02*
X245310097Y-83141084I-1122334J77403D01*
G01*
G37*
G04 #@! TD*
D15*
G04 #@! TO.C,SW53*
X257492500Y-67468750D03*
X247332500Y-67468750D03*
D16*
X249912500Y-63468750D03*
D17*
X252412500Y-67468750D03*
G36*
G01*
X247851188Y-65766100D02*
X247851183Y-65766095D01*
G75*
G02*
X247765155Y-64177433I751317J837345D01*
G01*
X249075157Y-62717433D01*
G75*
G02*
X250663819Y-62631405I837345J-751317D01*
G01*
X250663819Y-62631405D01*
G75*
G02*
X250749847Y-64220067I-751317J-837345D01*
G01*
X249439845Y-65680067D01*
G75*
G02*
X247851183Y-65766095I-837345J751317D01*
G01*
G37*
D16*
X254952500Y-62388750D03*
G36*
G01*
X254835983Y-64091145D02*
X254835097Y-64091084D01*
G75*
G02*
X253790166Y-62891347I77403J1122334D01*
G01*
X253830166Y-62311347D01*
G75*
G02*
X255029903Y-61266416I1122334J-77403D01*
G01*
X255029903Y-61266416D01*
G75*
G02*
X256074834Y-62466153I-77403J-1122334D01*
G01*
X256034834Y-63046153D01*
G75*
G02*
X254835097Y-64091084I-1122334J77403D01*
G01*
G37*
G04 #@! TD*
D15*
G04 #@! TO.C,SW52*
X252730000Y-48418750D03*
X242570000Y-48418750D03*
D16*
X245150000Y-44418750D03*
D17*
X247650000Y-48418750D03*
G36*
G01*
X243088688Y-46716100D02*
X243088683Y-46716095D01*
G75*
G02*
X243002655Y-45127433I751317J837345D01*
G01*
X244312657Y-43667433D01*
G75*
G02*
X245901319Y-43581405I837345J-751317D01*
G01*
X245901319Y-43581405D01*
G75*
G02*
X245987347Y-45170067I-751317J-837345D01*
G01*
X244677345Y-46630067D01*
G75*
G02*
X243088683Y-46716095I-837345J751317D01*
G01*
G37*
D16*
X250190000Y-43338750D03*
G36*
G01*
X250073483Y-45041145D02*
X250072597Y-45041084D01*
G75*
G02*
X249027666Y-43841347I77403J1122334D01*
G01*
X249067666Y-43261347D01*
G75*
G02*
X250267403Y-42216416I1122334J-77403D01*
G01*
X250267403Y-42216416D01*
G75*
G02*
X251312334Y-43416153I-77403J-1122334D01*
G01*
X251272334Y-43996153D01*
G75*
G02*
X250072597Y-45041084I-1122334J77403D01*
G01*
G37*
G04 #@! TD*
D15*
G04 #@! TO.C,SW51*
X243205000Y-29368750D03*
X233045000Y-29368750D03*
D16*
X235625000Y-25368750D03*
D17*
X238125000Y-29368750D03*
G36*
G01*
X233563688Y-27666100D02*
X233563683Y-27666095D01*
G75*
G02*
X233477655Y-26077433I751317J837345D01*
G01*
X234787657Y-24617433D01*
G75*
G02*
X236376319Y-24531405I837345J-751317D01*
G01*
X236376319Y-24531405D01*
G75*
G02*
X236462347Y-26120067I-751317J-837345D01*
G01*
X235152345Y-27580067D01*
G75*
G02*
X233563683Y-27666095I-837345J751317D01*
G01*
G37*
D16*
X240665000Y-24288750D03*
G36*
G01*
X240548483Y-25991145D02*
X240547597Y-25991084D01*
G75*
G02*
X239502666Y-24791347I77403J1122334D01*
G01*
X239542666Y-24211347D01*
G75*
G02*
X240742403Y-23166416I1122334J-77403D01*
G01*
X240742403Y-23166416D01*
G75*
G02*
X241787334Y-24366153I-77403J-1122334D01*
G01*
X241747334Y-24946153D01*
G75*
G02*
X240547597Y-25991084I-1122334J77403D01*
G01*
G37*
G04 #@! TD*
D15*
G04 #@! TO.C,SW49*
X228917500Y-86518750D03*
X218757500Y-86518750D03*
D16*
X221337500Y-82518750D03*
D17*
X223837500Y-86518750D03*
G36*
G01*
X219276188Y-84816100D02*
X219276183Y-84816095D01*
G75*
G02*
X219190155Y-83227433I751317J837345D01*
G01*
X220500157Y-81767433D01*
G75*
G02*
X222088819Y-81681405I837345J-751317D01*
G01*
X222088819Y-81681405D01*
G75*
G02*
X222174847Y-83270067I-751317J-837345D01*
G01*
X220864845Y-84730067D01*
G75*
G02*
X219276183Y-84816095I-837345J751317D01*
G01*
G37*
D16*
X226377500Y-81438750D03*
G36*
G01*
X226260983Y-83141145D02*
X226260097Y-83141084D01*
G75*
G02*
X225215166Y-81941347I77403J1122334D01*
G01*
X225255166Y-81361347D01*
G75*
G02*
X226454903Y-80316416I1122334J-77403D01*
G01*
X226454903Y-80316416D01*
G75*
G02*
X227499834Y-81516153I-77403J-1122334D01*
G01*
X227459834Y-82096153D01*
G75*
G02*
X226260097Y-83141084I-1122334J77403D01*
G01*
G37*
G04 #@! TD*
D15*
G04 #@! TO.C,SW48*
X238442500Y-67468750D03*
X228282500Y-67468750D03*
D16*
X230862500Y-63468750D03*
D17*
X233362500Y-67468750D03*
G36*
G01*
X228801188Y-65766100D02*
X228801183Y-65766095D01*
G75*
G02*
X228715155Y-64177433I751317J837345D01*
G01*
X230025157Y-62717433D01*
G75*
G02*
X231613819Y-62631405I837345J-751317D01*
G01*
X231613819Y-62631405D01*
G75*
G02*
X231699847Y-64220067I-751317J-837345D01*
G01*
X230389845Y-65680067D01*
G75*
G02*
X228801183Y-65766095I-837345J751317D01*
G01*
G37*
D16*
X235902500Y-62388750D03*
G36*
G01*
X235785983Y-64091145D02*
X235785097Y-64091084D01*
G75*
G02*
X234740166Y-62891347I77403J1122334D01*
G01*
X234780166Y-62311347D01*
G75*
G02*
X235979903Y-61266416I1122334J-77403D01*
G01*
X235979903Y-61266416D01*
G75*
G02*
X237024834Y-62466153I-77403J-1122334D01*
G01*
X236984834Y-63046153D01*
G75*
G02*
X235785097Y-64091084I-1122334J77403D01*
G01*
G37*
G04 #@! TD*
D15*
G04 #@! TO.C,SW47*
X233680000Y-48418750D03*
X223520000Y-48418750D03*
D16*
X226100000Y-44418750D03*
D17*
X228600000Y-48418750D03*
G36*
G01*
X224038688Y-46716100D02*
X224038683Y-46716095D01*
G75*
G02*
X223952655Y-45127433I751317J837345D01*
G01*
X225262657Y-43667433D01*
G75*
G02*
X226851319Y-43581405I837345J-751317D01*
G01*
X226851319Y-43581405D01*
G75*
G02*
X226937347Y-45170067I-751317J-837345D01*
G01*
X225627345Y-46630067D01*
G75*
G02*
X224038683Y-46716095I-837345J751317D01*
G01*
G37*
D16*
X231140000Y-43338750D03*
G36*
G01*
X231023483Y-45041145D02*
X231022597Y-45041084D01*
G75*
G02*
X229977666Y-43841347I77403J1122334D01*
G01*
X230017666Y-43261347D01*
G75*
G02*
X231217403Y-42216416I1122334J-77403D01*
G01*
X231217403Y-42216416D01*
G75*
G02*
X232262334Y-43416153I-77403J-1122334D01*
G01*
X232222334Y-43996153D01*
G75*
G02*
X231022597Y-45041084I-1122334J77403D01*
G01*
G37*
G04 #@! TD*
D15*
G04 #@! TO.C,SW46*
X224155000Y-29368750D03*
X213995000Y-29368750D03*
D16*
X216575000Y-25368750D03*
D17*
X219075000Y-29368750D03*
G36*
G01*
X214513688Y-27666100D02*
X214513683Y-27666095D01*
G75*
G02*
X214427655Y-26077433I751317J837345D01*
G01*
X215737657Y-24617433D01*
G75*
G02*
X217326319Y-24531405I837345J-751317D01*
G01*
X217326319Y-24531405D01*
G75*
G02*
X217412347Y-26120067I-751317J-837345D01*
G01*
X216102345Y-27580067D01*
G75*
G02*
X214513683Y-27666095I-837345J751317D01*
G01*
G37*
D16*
X221615000Y-24288750D03*
G36*
G01*
X221498483Y-25991145D02*
X221497597Y-25991084D01*
G75*
G02*
X220452666Y-24791347I77403J1122334D01*
G01*
X220492666Y-24211347D01*
G75*
G02*
X221692403Y-23166416I1122334J-77403D01*
G01*
X221692403Y-23166416D01*
G75*
G02*
X222737334Y-24366153I-77403J-1122334D01*
G01*
X222697334Y-24946153D01*
G75*
G02*
X221497597Y-25991084I-1122334J77403D01*
G01*
G37*
G04 #@! TD*
D15*
G04 #@! TO.C,SW45*
X209867500Y-86518750D03*
X199707500Y-86518750D03*
D16*
X202287500Y-82518750D03*
D17*
X204787500Y-86518750D03*
G36*
G01*
X200226188Y-84816100D02*
X200226183Y-84816095D01*
G75*
G02*
X200140155Y-83227433I751317J837345D01*
G01*
X201450157Y-81767433D01*
G75*
G02*
X203038819Y-81681405I837345J-751317D01*
G01*
X203038819Y-81681405D01*
G75*
G02*
X203124847Y-83270067I-751317J-837345D01*
G01*
X201814845Y-84730067D01*
G75*
G02*
X200226183Y-84816095I-837345J751317D01*
G01*
G37*
D16*
X207327500Y-81438750D03*
G36*
G01*
X207210983Y-83141145D02*
X207210097Y-83141084D01*
G75*
G02*
X206165166Y-81941347I77403J1122334D01*
G01*
X206205166Y-81361347D01*
G75*
G02*
X207404903Y-80316416I1122334J-77403D01*
G01*
X207404903Y-80316416D01*
G75*
G02*
X208449834Y-81516153I-77403J-1122334D01*
G01*
X208409834Y-82096153D01*
G75*
G02*
X207210097Y-83141084I-1122334J77403D01*
G01*
G37*
G04 #@! TD*
D15*
G04 #@! TO.C,SW44*
X219392500Y-67468750D03*
X209232500Y-67468750D03*
D16*
X211812500Y-63468750D03*
D17*
X214312500Y-67468750D03*
G36*
G01*
X209751188Y-65766100D02*
X209751183Y-65766095D01*
G75*
G02*
X209665155Y-64177433I751317J837345D01*
G01*
X210975157Y-62717433D01*
G75*
G02*
X212563819Y-62631405I837345J-751317D01*
G01*
X212563819Y-62631405D01*
G75*
G02*
X212649847Y-64220067I-751317J-837345D01*
G01*
X211339845Y-65680067D01*
G75*
G02*
X209751183Y-65766095I-837345J751317D01*
G01*
G37*
D16*
X216852500Y-62388750D03*
G36*
G01*
X216735983Y-64091145D02*
X216735097Y-64091084D01*
G75*
G02*
X215690166Y-62891347I77403J1122334D01*
G01*
X215730166Y-62311347D01*
G75*
G02*
X216929903Y-61266416I1122334J-77403D01*
G01*
X216929903Y-61266416D01*
G75*
G02*
X217974834Y-62466153I-77403J-1122334D01*
G01*
X217934834Y-63046153D01*
G75*
G02*
X216735097Y-64091084I-1122334J77403D01*
G01*
G37*
G04 #@! TD*
D15*
G04 #@! TO.C,SW43*
X214630000Y-48418750D03*
X204470000Y-48418750D03*
D16*
X207050000Y-44418750D03*
D17*
X209550000Y-48418750D03*
G36*
G01*
X204988688Y-46716100D02*
X204988683Y-46716095D01*
G75*
G02*
X204902655Y-45127433I751317J837345D01*
G01*
X206212657Y-43667433D01*
G75*
G02*
X207801319Y-43581405I837345J-751317D01*
G01*
X207801319Y-43581405D01*
G75*
G02*
X207887347Y-45170067I-751317J-837345D01*
G01*
X206577345Y-46630067D01*
G75*
G02*
X204988683Y-46716095I-837345J751317D01*
G01*
G37*
D16*
X212090000Y-43338750D03*
G36*
G01*
X211973483Y-45041145D02*
X211972597Y-45041084D01*
G75*
G02*
X210927666Y-43841347I77403J1122334D01*
G01*
X210967666Y-43261347D01*
G75*
G02*
X212167403Y-42216416I1122334J-77403D01*
G01*
X212167403Y-42216416D01*
G75*
G02*
X213212334Y-43416153I-77403J-1122334D01*
G01*
X213172334Y-43996153D01*
G75*
G02*
X211972597Y-45041084I-1122334J77403D01*
G01*
G37*
G04 #@! TD*
D15*
G04 #@! TO.C,SW42*
X205105000Y-29368750D03*
X194945000Y-29368750D03*
D16*
X197525000Y-25368750D03*
D17*
X200025000Y-29368750D03*
G36*
G01*
X195463688Y-27666100D02*
X195463683Y-27666095D01*
G75*
G02*
X195377655Y-26077433I751317J837345D01*
G01*
X196687657Y-24617433D01*
G75*
G02*
X198276319Y-24531405I837345J-751317D01*
G01*
X198276319Y-24531405D01*
G75*
G02*
X198362347Y-26120067I-751317J-837345D01*
G01*
X197052345Y-27580067D01*
G75*
G02*
X195463683Y-27666095I-837345J751317D01*
G01*
G37*
D16*
X202565000Y-24288750D03*
G36*
G01*
X202448483Y-25991145D02*
X202447597Y-25991084D01*
G75*
G02*
X201402666Y-24791347I77403J1122334D01*
G01*
X201442666Y-24211347D01*
G75*
G02*
X202642403Y-23166416I1122334J-77403D01*
G01*
X202642403Y-23166416D01*
G75*
G02*
X203687334Y-24366153I-77403J-1122334D01*
G01*
X203647334Y-24946153D01*
G75*
G02*
X202447597Y-25991084I-1122334J77403D01*
G01*
G37*
G04 #@! TD*
D15*
G04 #@! TO.C,SW41*
X190817500Y-86518750D03*
X180657500Y-86518750D03*
D16*
X183237500Y-82518750D03*
D17*
X185737500Y-86518750D03*
G36*
G01*
X181176188Y-84816100D02*
X181176183Y-84816095D01*
G75*
G02*
X181090155Y-83227433I751317J837345D01*
G01*
X182400157Y-81767433D01*
G75*
G02*
X183988819Y-81681405I837345J-751317D01*
G01*
X183988819Y-81681405D01*
G75*
G02*
X184074847Y-83270067I-751317J-837345D01*
G01*
X182764845Y-84730067D01*
G75*
G02*
X181176183Y-84816095I-837345J751317D01*
G01*
G37*
D16*
X188277500Y-81438750D03*
G36*
G01*
X188160983Y-83141145D02*
X188160097Y-83141084D01*
G75*
G02*
X187115166Y-81941347I77403J1122334D01*
G01*
X187155166Y-81361347D01*
G75*
G02*
X188354903Y-80316416I1122334J-77403D01*
G01*
X188354903Y-80316416D01*
G75*
G02*
X189399834Y-81516153I-77403J-1122334D01*
G01*
X189359834Y-82096153D01*
G75*
G02*
X188160097Y-83141084I-1122334J77403D01*
G01*
G37*
G04 #@! TD*
D15*
G04 #@! TO.C,SW40*
X200342500Y-67468750D03*
X190182500Y-67468750D03*
D16*
X192762500Y-63468750D03*
D17*
X195262500Y-67468750D03*
G36*
G01*
X190701188Y-65766100D02*
X190701183Y-65766095D01*
G75*
G02*
X190615155Y-64177433I751317J837345D01*
G01*
X191925157Y-62717433D01*
G75*
G02*
X193513819Y-62631405I837345J-751317D01*
G01*
X193513819Y-62631405D01*
G75*
G02*
X193599847Y-64220067I-751317J-837345D01*
G01*
X192289845Y-65680067D01*
G75*
G02*
X190701183Y-65766095I-837345J751317D01*
G01*
G37*
D16*
X197802500Y-62388750D03*
G36*
G01*
X197685983Y-64091145D02*
X197685097Y-64091084D01*
G75*
G02*
X196640166Y-62891347I77403J1122334D01*
G01*
X196680166Y-62311347D01*
G75*
G02*
X197879903Y-61266416I1122334J-77403D01*
G01*
X197879903Y-61266416D01*
G75*
G02*
X198924834Y-62466153I-77403J-1122334D01*
G01*
X198884834Y-63046153D01*
G75*
G02*
X197685097Y-64091084I-1122334J77403D01*
G01*
G37*
G04 #@! TD*
D15*
G04 #@! TO.C,SW39*
X195580000Y-48418750D03*
X185420000Y-48418750D03*
D16*
X188000000Y-44418750D03*
D17*
X190500000Y-48418750D03*
G36*
G01*
X185938688Y-46716100D02*
X185938683Y-46716095D01*
G75*
G02*
X185852655Y-45127433I751317J837345D01*
G01*
X187162657Y-43667433D01*
G75*
G02*
X188751319Y-43581405I837345J-751317D01*
G01*
X188751319Y-43581405D01*
G75*
G02*
X188837347Y-45170067I-751317J-837345D01*
G01*
X187527345Y-46630067D01*
G75*
G02*
X185938683Y-46716095I-837345J751317D01*
G01*
G37*
D16*
X193040000Y-43338750D03*
G36*
G01*
X192923483Y-45041145D02*
X192922597Y-45041084D01*
G75*
G02*
X191877666Y-43841347I77403J1122334D01*
G01*
X191917666Y-43261347D01*
G75*
G02*
X193117403Y-42216416I1122334J-77403D01*
G01*
X193117403Y-42216416D01*
G75*
G02*
X194162334Y-43416153I-77403J-1122334D01*
G01*
X194122334Y-43996153D01*
G75*
G02*
X192922597Y-45041084I-1122334J77403D01*
G01*
G37*
G04 #@! TD*
D15*
G04 #@! TO.C,SW38*
X186055000Y-29368750D03*
X175895000Y-29368750D03*
D16*
X178475000Y-25368750D03*
D17*
X180975000Y-29368750D03*
G36*
G01*
X176413688Y-27666100D02*
X176413683Y-27666095D01*
G75*
G02*
X176327655Y-26077433I751317J837345D01*
G01*
X177637657Y-24617433D01*
G75*
G02*
X179226319Y-24531405I837345J-751317D01*
G01*
X179226319Y-24531405D01*
G75*
G02*
X179312347Y-26120067I-751317J-837345D01*
G01*
X178002345Y-27580067D01*
G75*
G02*
X176413683Y-27666095I-837345J751317D01*
G01*
G37*
D16*
X183515000Y-24288750D03*
G36*
G01*
X183398483Y-25991145D02*
X183397597Y-25991084D01*
G75*
G02*
X182352666Y-24791347I77403J1122334D01*
G01*
X182392666Y-24211347D01*
G75*
G02*
X183592403Y-23166416I1122334J-77403D01*
G01*
X183592403Y-23166416D01*
G75*
G02*
X184637334Y-24366153I-77403J-1122334D01*
G01*
X184597334Y-24946153D01*
G75*
G02*
X183397597Y-25991084I-1122334J77403D01*
G01*
G37*
G04 #@! TD*
D15*
G04 #@! TO.C,SW37*
X171767500Y-86518750D03*
X161607500Y-86518750D03*
D16*
X164187500Y-82518750D03*
D17*
X166687500Y-86518750D03*
G36*
G01*
X162126188Y-84816100D02*
X162126183Y-84816095D01*
G75*
G02*
X162040155Y-83227433I751317J837345D01*
G01*
X163350157Y-81767433D01*
G75*
G02*
X164938819Y-81681405I837345J-751317D01*
G01*
X164938819Y-81681405D01*
G75*
G02*
X165024847Y-83270067I-751317J-837345D01*
G01*
X163714845Y-84730067D01*
G75*
G02*
X162126183Y-84816095I-837345J751317D01*
G01*
G37*
D16*
X169227500Y-81438750D03*
G36*
G01*
X169110983Y-83141145D02*
X169110097Y-83141084D01*
G75*
G02*
X168065166Y-81941347I77403J1122334D01*
G01*
X168105166Y-81361347D01*
G75*
G02*
X169304903Y-80316416I1122334J-77403D01*
G01*
X169304903Y-80316416D01*
G75*
G02*
X170349834Y-81516153I-77403J-1122334D01*
G01*
X170309834Y-82096153D01*
G75*
G02*
X169110097Y-83141084I-1122334J77403D01*
G01*
G37*
G04 #@! TD*
D15*
G04 #@! TO.C,SW36*
X181292500Y-67468750D03*
X171132500Y-67468750D03*
D16*
X173712500Y-63468750D03*
D17*
X176212500Y-67468750D03*
G36*
G01*
X171651188Y-65766100D02*
X171651183Y-65766095D01*
G75*
G02*
X171565155Y-64177433I751317J837345D01*
G01*
X172875157Y-62717433D01*
G75*
G02*
X174463819Y-62631405I837345J-751317D01*
G01*
X174463819Y-62631405D01*
G75*
G02*
X174549847Y-64220067I-751317J-837345D01*
G01*
X173239845Y-65680067D01*
G75*
G02*
X171651183Y-65766095I-837345J751317D01*
G01*
G37*
D16*
X178752500Y-62388750D03*
G36*
G01*
X178635983Y-64091145D02*
X178635097Y-64091084D01*
G75*
G02*
X177590166Y-62891347I77403J1122334D01*
G01*
X177630166Y-62311347D01*
G75*
G02*
X178829903Y-61266416I1122334J-77403D01*
G01*
X178829903Y-61266416D01*
G75*
G02*
X179874834Y-62466153I-77403J-1122334D01*
G01*
X179834834Y-63046153D01*
G75*
G02*
X178635097Y-64091084I-1122334J77403D01*
G01*
G37*
G04 #@! TD*
D15*
G04 #@! TO.C,SW35*
X176530000Y-48418750D03*
X166370000Y-48418750D03*
D16*
X168950000Y-44418750D03*
D17*
X171450000Y-48418750D03*
G36*
G01*
X166888688Y-46716100D02*
X166888683Y-46716095D01*
G75*
G02*
X166802655Y-45127433I751317J837345D01*
G01*
X168112657Y-43667433D01*
G75*
G02*
X169701319Y-43581405I837345J-751317D01*
G01*
X169701319Y-43581405D01*
G75*
G02*
X169787347Y-45170067I-751317J-837345D01*
G01*
X168477345Y-46630067D01*
G75*
G02*
X166888683Y-46716095I-837345J751317D01*
G01*
G37*
D16*
X173990000Y-43338750D03*
G36*
G01*
X173873483Y-45041145D02*
X173872597Y-45041084D01*
G75*
G02*
X172827666Y-43841347I77403J1122334D01*
G01*
X172867666Y-43261347D01*
G75*
G02*
X174067403Y-42216416I1122334J-77403D01*
G01*
X174067403Y-42216416D01*
G75*
G02*
X175112334Y-43416153I-77403J-1122334D01*
G01*
X175072334Y-43996153D01*
G75*
G02*
X173872597Y-45041084I-1122334J77403D01*
G01*
G37*
G04 #@! TD*
D15*
G04 #@! TO.C,SW34*
X167005000Y-29368750D03*
X156845000Y-29368750D03*
D16*
X159425000Y-25368750D03*
D17*
X161925000Y-29368750D03*
G36*
G01*
X157363688Y-27666100D02*
X157363683Y-27666095D01*
G75*
G02*
X157277655Y-26077433I751317J837345D01*
G01*
X158587657Y-24617433D01*
G75*
G02*
X160176319Y-24531405I837345J-751317D01*
G01*
X160176319Y-24531405D01*
G75*
G02*
X160262347Y-26120067I-751317J-837345D01*
G01*
X158952345Y-27580067D01*
G75*
G02*
X157363683Y-27666095I-837345J751317D01*
G01*
G37*
D16*
X164465000Y-24288750D03*
G36*
G01*
X164348483Y-25991145D02*
X164347597Y-25991084D01*
G75*
G02*
X163302666Y-24791347I77403J1122334D01*
G01*
X163342666Y-24211347D01*
G75*
G02*
X164542403Y-23166416I1122334J-77403D01*
G01*
X164542403Y-23166416D01*
G75*
G02*
X165587334Y-24366153I-77403J-1122334D01*
G01*
X165547334Y-24946153D01*
G75*
G02*
X164347597Y-25991084I-1122334J77403D01*
G01*
G37*
G04 #@! TD*
D17*
G04 #@! TO.C,SW33*
X200018650Y-97313750D03*
X100018850Y-97313750D03*
D18*
X200018650Y-112553750D03*
X100018850Y-112553750D03*
D15*
X155098750Y-105568750D03*
X144938750Y-105568750D03*
D16*
X147518750Y-101568750D03*
D17*
X150018750Y-105568750D03*
G36*
G01*
X145457438Y-103866100D02*
X145457433Y-103866095D01*
G75*
G02*
X145371405Y-102277433I751317J837345D01*
G01*
X146681407Y-100817433D01*
G75*
G02*
X148270069Y-100731405I837345J-751317D01*
G01*
X148270069Y-100731405D01*
G75*
G02*
X148356097Y-102320067I-751317J-837345D01*
G01*
X147046095Y-103780067D01*
G75*
G02*
X145457433Y-103866095I-837345J751317D01*
G01*
G37*
D16*
X152558750Y-100488750D03*
G36*
G01*
X152442233Y-102191145D02*
X152441347Y-102191084D01*
G75*
G02*
X151396416Y-100991347I77403J1122334D01*
G01*
X151436416Y-100411347D01*
G75*
G02*
X152636153Y-99366416I1122334J-77403D01*
G01*
X152636153Y-99366416D01*
G75*
G02*
X153681084Y-100566153I-77403J-1122334D01*
G01*
X153641084Y-101146153D01*
G75*
G02*
X152441347Y-102191084I-1122334J77403D01*
G01*
G37*
G04 #@! TD*
D15*
G04 #@! TO.C,SW32*
X152717500Y-86518750D03*
X142557500Y-86518750D03*
D16*
X145137500Y-82518750D03*
D17*
X147637500Y-86518750D03*
G36*
G01*
X143076188Y-84816100D02*
X143076183Y-84816095D01*
G75*
G02*
X142990155Y-83227433I751317J837345D01*
G01*
X144300157Y-81767433D01*
G75*
G02*
X145888819Y-81681405I837345J-751317D01*
G01*
X145888819Y-81681405D01*
G75*
G02*
X145974847Y-83270067I-751317J-837345D01*
G01*
X144664845Y-84730067D01*
G75*
G02*
X143076183Y-84816095I-837345J751317D01*
G01*
G37*
D16*
X150177500Y-81438750D03*
G36*
G01*
X150060983Y-83141145D02*
X150060097Y-83141084D01*
G75*
G02*
X149015166Y-81941347I77403J1122334D01*
G01*
X149055166Y-81361347D01*
G75*
G02*
X150254903Y-80316416I1122334J-77403D01*
G01*
X150254903Y-80316416D01*
G75*
G02*
X151299834Y-81516153I-77403J-1122334D01*
G01*
X151259834Y-82096153D01*
G75*
G02*
X150060097Y-83141084I-1122334J77403D01*
G01*
G37*
G04 #@! TD*
D15*
G04 #@! TO.C,SW31*
X162242500Y-67468750D03*
X152082500Y-67468750D03*
D16*
X154662500Y-63468750D03*
D17*
X157162500Y-67468750D03*
G36*
G01*
X152601188Y-65766100D02*
X152601183Y-65766095D01*
G75*
G02*
X152515155Y-64177433I751317J837345D01*
G01*
X153825157Y-62717433D01*
G75*
G02*
X155413819Y-62631405I837345J-751317D01*
G01*
X155413819Y-62631405D01*
G75*
G02*
X155499847Y-64220067I-751317J-837345D01*
G01*
X154189845Y-65680067D01*
G75*
G02*
X152601183Y-65766095I-837345J751317D01*
G01*
G37*
D16*
X159702500Y-62388750D03*
G36*
G01*
X159585983Y-64091145D02*
X159585097Y-64091084D01*
G75*
G02*
X158540166Y-62891347I77403J1122334D01*
G01*
X158580166Y-62311347D01*
G75*
G02*
X159779903Y-61266416I1122334J-77403D01*
G01*
X159779903Y-61266416D01*
G75*
G02*
X160824834Y-62466153I-77403J-1122334D01*
G01*
X160784834Y-63046153D01*
G75*
G02*
X159585097Y-64091084I-1122334J77403D01*
G01*
G37*
G04 #@! TD*
D15*
G04 #@! TO.C,SW30*
X157480000Y-48418750D03*
X147320000Y-48418750D03*
D16*
X149900000Y-44418750D03*
D17*
X152400000Y-48418750D03*
G36*
G01*
X147838688Y-46716100D02*
X147838683Y-46716095D01*
G75*
G02*
X147752655Y-45127433I751317J837345D01*
G01*
X149062657Y-43667433D01*
G75*
G02*
X150651319Y-43581405I837345J-751317D01*
G01*
X150651319Y-43581405D01*
G75*
G02*
X150737347Y-45170067I-751317J-837345D01*
G01*
X149427345Y-46630067D01*
G75*
G02*
X147838683Y-46716095I-837345J751317D01*
G01*
G37*
D16*
X154940000Y-43338750D03*
G36*
G01*
X154823483Y-45041145D02*
X154822597Y-45041084D01*
G75*
G02*
X153777666Y-43841347I77403J1122334D01*
G01*
X153817666Y-43261347D01*
G75*
G02*
X155017403Y-42216416I1122334J-77403D01*
G01*
X155017403Y-42216416D01*
G75*
G02*
X156062334Y-43416153I-77403J-1122334D01*
G01*
X156022334Y-43996153D01*
G75*
G02*
X154822597Y-45041084I-1122334J77403D01*
G01*
G37*
G04 #@! TD*
D15*
G04 #@! TO.C,SW29*
X147955000Y-29368750D03*
X137795000Y-29368750D03*
D16*
X140375000Y-25368750D03*
D17*
X142875000Y-29368750D03*
G36*
G01*
X138313688Y-27666100D02*
X138313683Y-27666095D01*
G75*
G02*
X138227655Y-26077433I751317J837345D01*
G01*
X139537657Y-24617433D01*
G75*
G02*
X141126319Y-24531405I837345J-751317D01*
G01*
X141126319Y-24531405D01*
G75*
G02*
X141212347Y-26120067I-751317J-837345D01*
G01*
X139902345Y-27580067D01*
G75*
G02*
X138313683Y-27666095I-837345J751317D01*
G01*
G37*
D16*
X145415000Y-24288750D03*
G36*
G01*
X145298483Y-25991145D02*
X145297597Y-25991084D01*
G75*
G02*
X144252666Y-24791347I77403J1122334D01*
G01*
X144292666Y-24211347D01*
G75*
G02*
X145492403Y-23166416I1122334J-77403D01*
G01*
X145492403Y-23166416D01*
G75*
G02*
X146537334Y-24366153I-77403J-1122334D01*
G01*
X146497334Y-24946153D01*
G75*
G02*
X145297597Y-25991084I-1122334J77403D01*
G01*
G37*
G04 #@! TD*
D15*
G04 #@! TO.C,SW28*
X133667500Y-86518750D03*
X123507500Y-86518750D03*
D16*
X126087500Y-82518750D03*
D17*
X128587500Y-86518750D03*
G36*
G01*
X124026188Y-84816100D02*
X124026183Y-84816095D01*
G75*
G02*
X123940155Y-83227433I751317J837345D01*
G01*
X125250157Y-81767433D01*
G75*
G02*
X126838819Y-81681405I837345J-751317D01*
G01*
X126838819Y-81681405D01*
G75*
G02*
X126924847Y-83270067I-751317J-837345D01*
G01*
X125614845Y-84730067D01*
G75*
G02*
X124026183Y-84816095I-837345J751317D01*
G01*
G37*
D16*
X131127500Y-81438750D03*
G36*
G01*
X131010983Y-83141145D02*
X131010097Y-83141084D01*
G75*
G02*
X129965166Y-81941347I77403J1122334D01*
G01*
X130005166Y-81361347D01*
G75*
G02*
X131204903Y-80316416I1122334J-77403D01*
G01*
X131204903Y-80316416D01*
G75*
G02*
X132249834Y-81516153I-77403J-1122334D01*
G01*
X132209834Y-82096153D01*
G75*
G02*
X131010097Y-83141084I-1122334J77403D01*
G01*
G37*
G04 #@! TD*
D15*
G04 #@! TO.C,SW27*
X143192500Y-67468750D03*
X133032500Y-67468750D03*
D16*
X135612500Y-63468750D03*
D17*
X138112500Y-67468750D03*
G36*
G01*
X133551188Y-65766100D02*
X133551183Y-65766095D01*
G75*
G02*
X133465155Y-64177433I751317J837345D01*
G01*
X134775157Y-62717433D01*
G75*
G02*
X136363819Y-62631405I837345J-751317D01*
G01*
X136363819Y-62631405D01*
G75*
G02*
X136449847Y-64220067I-751317J-837345D01*
G01*
X135139845Y-65680067D01*
G75*
G02*
X133551183Y-65766095I-837345J751317D01*
G01*
G37*
D16*
X140652500Y-62388750D03*
G36*
G01*
X140535983Y-64091145D02*
X140535097Y-64091084D01*
G75*
G02*
X139490166Y-62891347I77403J1122334D01*
G01*
X139530166Y-62311347D01*
G75*
G02*
X140729903Y-61266416I1122334J-77403D01*
G01*
X140729903Y-61266416D01*
G75*
G02*
X141774834Y-62466153I-77403J-1122334D01*
G01*
X141734834Y-63046153D01*
G75*
G02*
X140535097Y-64091084I-1122334J77403D01*
G01*
G37*
G04 #@! TD*
D15*
G04 #@! TO.C,SW26*
X138430000Y-48418750D03*
X128270000Y-48418750D03*
D16*
X130850000Y-44418750D03*
D17*
X133350000Y-48418750D03*
G36*
G01*
X128788688Y-46716100D02*
X128788683Y-46716095D01*
G75*
G02*
X128702655Y-45127433I751317J837345D01*
G01*
X130012657Y-43667433D01*
G75*
G02*
X131601319Y-43581405I837345J-751317D01*
G01*
X131601319Y-43581405D01*
G75*
G02*
X131687347Y-45170067I-751317J-837345D01*
G01*
X130377345Y-46630067D01*
G75*
G02*
X128788683Y-46716095I-837345J751317D01*
G01*
G37*
D16*
X135890000Y-43338750D03*
G36*
G01*
X135773483Y-45041145D02*
X135772597Y-45041084D01*
G75*
G02*
X134727666Y-43841347I77403J1122334D01*
G01*
X134767666Y-43261347D01*
G75*
G02*
X135967403Y-42216416I1122334J-77403D01*
G01*
X135967403Y-42216416D01*
G75*
G02*
X137012334Y-43416153I-77403J-1122334D01*
G01*
X136972334Y-43996153D01*
G75*
G02*
X135772597Y-45041084I-1122334J77403D01*
G01*
G37*
G04 #@! TD*
D15*
G04 #@! TO.C,SW25*
X128905000Y-29368750D03*
X118745000Y-29368750D03*
D16*
X121325000Y-25368750D03*
D17*
X123825000Y-29368750D03*
G36*
G01*
X119263688Y-27666100D02*
X119263683Y-27666095D01*
G75*
G02*
X119177655Y-26077433I751317J837345D01*
G01*
X120487657Y-24617433D01*
G75*
G02*
X122076319Y-24531405I837345J-751317D01*
G01*
X122076319Y-24531405D01*
G75*
G02*
X122162347Y-26120067I-751317J-837345D01*
G01*
X120852345Y-27580067D01*
G75*
G02*
X119263683Y-27666095I-837345J751317D01*
G01*
G37*
D16*
X126365000Y-24288750D03*
G36*
G01*
X126248483Y-25991145D02*
X126247597Y-25991084D01*
G75*
G02*
X125202666Y-24791347I77403J1122334D01*
G01*
X125242666Y-24211347D01*
G75*
G02*
X126442403Y-23166416I1122334J-77403D01*
G01*
X126442403Y-23166416D01*
G75*
G02*
X127487334Y-24366153I-77403J-1122334D01*
G01*
X127447334Y-24946153D01*
G75*
G02*
X126247597Y-25991084I-1122334J77403D01*
G01*
G37*
G04 #@! TD*
D15*
G04 #@! TO.C,SW24*
X114617500Y-86518750D03*
X104457500Y-86518750D03*
D16*
X107037500Y-82518750D03*
D17*
X109537500Y-86518750D03*
G36*
G01*
X104976188Y-84816100D02*
X104976183Y-84816095D01*
G75*
G02*
X104890155Y-83227433I751317J837345D01*
G01*
X106200157Y-81767433D01*
G75*
G02*
X107788819Y-81681405I837345J-751317D01*
G01*
X107788819Y-81681405D01*
G75*
G02*
X107874847Y-83270067I-751317J-837345D01*
G01*
X106564845Y-84730067D01*
G75*
G02*
X104976183Y-84816095I-837345J751317D01*
G01*
G37*
D16*
X112077500Y-81438750D03*
G36*
G01*
X111960983Y-83141145D02*
X111960097Y-83141084D01*
G75*
G02*
X110915166Y-81941347I77403J1122334D01*
G01*
X110955166Y-81361347D01*
G75*
G02*
X112154903Y-80316416I1122334J-77403D01*
G01*
X112154903Y-80316416D01*
G75*
G02*
X113199834Y-81516153I-77403J-1122334D01*
G01*
X113159834Y-82096153D01*
G75*
G02*
X111960097Y-83141084I-1122334J77403D01*
G01*
G37*
G04 #@! TD*
D15*
G04 #@! TO.C,SW23*
X124142500Y-67468750D03*
X113982500Y-67468750D03*
D16*
X116562500Y-63468750D03*
D17*
X119062500Y-67468750D03*
G36*
G01*
X114501188Y-65766100D02*
X114501183Y-65766095D01*
G75*
G02*
X114415155Y-64177433I751317J837345D01*
G01*
X115725157Y-62717433D01*
G75*
G02*
X117313819Y-62631405I837345J-751317D01*
G01*
X117313819Y-62631405D01*
G75*
G02*
X117399847Y-64220067I-751317J-837345D01*
G01*
X116089845Y-65680067D01*
G75*
G02*
X114501183Y-65766095I-837345J751317D01*
G01*
G37*
D16*
X121602500Y-62388750D03*
G36*
G01*
X121485983Y-64091145D02*
X121485097Y-64091084D01*
G75*
G02*
X120440166Y-62891347I77403J1122334D01*
G01*
X120480166Y-62311347D01*
G75*
G02*
X121679903Y-61266416I1122334J-77403D01*
G01*
X121679903Y-61266416D01*
G75*
G02*
X122724834Y-62466153I-77403J-1122334D01*
G01*
X122684834Y-63046153D01*
G75*
G02*
X121485097Y-64091084I-1122334J77403D01*
G01*
G37*
G04 #@! TD*
D15*
G04 #@! TO.C,SW22*
X119380000Y-48418750D03*
X109220000Y-48418750D03*
D16*
X111800000Y-44418750D03*
D17*
X114300000Y-48418750D03*
G36*
G01*
X109738688Y-46716100D02*
X109738683Y-46716095D01*
G75*
G02*
X109652655Y-45127433I751317J837345D01*
G01*
X110962657Y-43667433D01*
G75*
G02*
X112551319Y-43581405I837345J-751317D01*
G01*
X112551319Y-43581405D01*
G75*
G02*
X112637347Y-45170067I-751317J-837345D01*
G01*
X111327345Y-46630067D01*
G75*
G02*
X109738683Y-46716095I-837345J751317D01*
G01*
G37*
D16*
X116840000Y-43338750D03*
G36*
G01*
X116723483Y-45041145D02*
X116722597Y-45041084D01*
G75*
G02*
X115677666Y-43841347I77403J1122334D01*
G01*
X115717666Y-43261347D01*
G75*
G02*
X116917403Y-42216416I1122334J-77403D01*
G01*
X116917403Y-42216416D01*
G75*
G02*
X117962334Y-43416153I-77403J-1122334D01*
G01*
X117922334Y-43996153D01*
G75*
G02*
X116722597Y-45041084I-1122334J77403D01*
G01*
G37*
G04 #@! TD*
D15*
G04 #@! TO.C,SW21*
X109855000Y-29368750D03*
X99695000Y-29368750D03*
D16*
X102275000Y-25368750D03*
D17*
X104775000Y-29368750D03*
G36*
G01*
X100213688Y-27666100D02*
X100213683Y-27666095D01*
G75*
G02*
X100127655Y-26077433I751317J837345D01*
G01*
X101437657Y-24617433D01*
G75*
G02*
X103026319Y-24531405I837345J-751317D01*
G01*
X103026319Y-24531405D01*
G75*
G02*
X103112347Y-26120067I-751317J-837345D01*
G01*
X101802345Y-27580067D01*
G75*
G02*
X100213683Y-27666095I-837345J751317D01*
G01*
G37*
D16*
X107315000Y-24288750D03*
G36*
G01*
X107198483Y-25991145D02*
X107197597Y-25991084D01*
G75*
G02*
X106152666Y-24791347I77403J1122334D01*
G01*
X106192666Y-24211347D01*
G75*
G02*
X107392403Y-23166416I1122334J-77403D01*
G01*
X107392403Y-23166416D01*
G75*
G02*
X108437334Y-24366153I-77403J-1122334D01*
G01*
X108397334Y-24946153D01*
G75*
G02*
X107197597Y-25991084I-1122334J77403D01*
G01*
G37*
G04 #@! TD*
D15*
G04 #@! TO.C,SW20*
X95567500Y-86518750D03*
X85407500Y-86518750D03*
D16*
X87987500Y-82518750D03*
D17*
X90487500Y-86518750D03*
G36*
G01*
X85926188Y-84816100D02*
X85926183Y-84816095D01*
G75*
G02*
X85840155Y-83227433I751317J837345D01*
G01*
X87150157Y-81767433D01*
G75*
G02*
X88738819Y-81681405I837345J-751317D01*
G01*
X88738819Y-81681405D01*
G75*
G02*
X88824847Y-83270067I-751317J-837345D01*
G01*
X87514845Y-84730067D01*
G75*
G02*
X85926183Y-84816095I-837345J751317D01*
G01*
G37*
D16*
X93027500Y-81438750D03*
G36*
G01*
X92910983Y-83141145D02*
X92910097Y-83141084D01*
G75*
G02*
X91865166Y-81941347I77403J1122334D01*
G01*
X91905166Y-81361347D01*
G75*
G02*
X93104903Y-80316416I1122334J-77403D01*
G01*
X93104903Y-80316416D01*
G75*
G02*
X94149834Y-81516153I-77403J-1122334D01*
G01*
X94109834Y-82096153D01*
G75*
G02*
X92910097Y-83141084I-1122334J77403D01*
G01*
G37*
G04 #@! TD*
D15*
G04 #@! TO.C,SW19*
X105092500Y-67468750D03*
X94932500Y-67468750D03*
D16*
X97512500Y-63468750D03*
D17*
X100012500Y-67468750D03*
G36*
G01*
X95451188Y-65766100D02*
X95451183Y-65766095D01*
G75*
G02*
X95365155Y-64177433I751317J837345D01*
G01*
X96675157Y-62717433D01*
G75*
G02*
X98263819Y-62631405I837345J-751317D01*
G01*
X98263819Y-62631405D01*
G75*
G02*
X98349847Y-64220067I-751317J-837345D01*
G01*
X97039845Y-65680067D01*
G75*
G02*
X95451183Y-65766095I-837345J751317D01*
G01*
G37*
D16*
X102552500Y-62388750D03*
G36*
G01*
X102435983Y-64091145D02*
X102435097Y-64091084D01*
G75*
G02*
X101390166Y-62891347I77403J1122334D01*
G01*
X101430166Y-62311347D01*
G75*
G02*
X102629903Y-61266416I1122334J-77403D01*
G01*
X102629903Y-61266416D01*
G75*
G02*
X103674834Y-62466153I-77403J-1122334D01*
G01*
X103634834Y-63046153D01*
G75*
G02*
X102435097Y-64091084I-1122334J77403D01*
G01*
G37*
G04 #@! TD*
D15*
G04 #@! TO.C,SW18*
X100330000Y-48418750D03*
X90170000Y-48418750D03*
D16*
X92750000Y-44418750D03*
D17*
X95250000Y-48418750D03*
G36*
G01*
X90688688Y-46716100D02*
X90688683Y-46716095D01*
G75*
G02*
X90602655Y-45127433I751317J837345D01*
G01*
X91912657Y-43667433D01*
G75*
G02*
X93501319Y-43581405I837345J-751317D01*
G01*
X93501319Y-43581405D01*
G75*
G02*
X93587347Y-45170067I-751317J-837345D01*
G01*
X92277345Y-46630067D01*
G75*
G02*
X90688683Y-46716095I-837345J751317D01*
G01*
G37*
D16*
X97790000Y-43338750D03*
G36*
G01*
X97673483Y-45041145D02*
X97672597Y-45041084D01*
G75*
G02*
X96627666Y-43841347I77403J1122334D01*
G01*
X96667666Y-43261347D01*
G75*
G02*
X97867403Y-42216416I1122334J-77403D01*
G01*
X97867403Y-42216416D01*
G75*
G02*
X98912334Y-43416153I-77403J-1122334D01*
G01*
X98872334Y-43996153D01*
G75*
G02*
X97672597Y-45041084I-1122334J77403D01*
G01*
G37*
G04 #@! TD*
D15*
G04 #@! TO.C,SW17*
X90805000Y-29368750D03*
X80645000Y-29368750D03*
D16*
X83225000Y-25368750D03*
D17*
X85725000Y-29368750D03*
G36*
G01*
X81163688Y-27666100D02*
X81163683Y-27666095D01*
G75*
G02*
X81077655Y-26077433I751317J837345D01*
G01*
X82387657Y-24617433D01*
G75*
G02*
X83976319Y-24531405I837345J-751317D01*
G01*
X83976319Y-24531405D01*
G75*
G02*
X84062347Y-26120067I-751317J-837345D01*
G01*
X82752345Y-27580067D01*
G75*
G02*
X81163683Y-27666095I-837345J751317D01*
G01*
G37*
D16*
X88265000Y-24288750D03*
G36*
G01*
X88148483Y-25991145D02*
X88147597Y-25991084D01*
G75*
G02*
X87102666Y-24791347I77403J1122334D01*
G01*
X87142666Y-24211347D01*
G75*
G02*
X88342403Y-23166416I1122334J-77403D01*
G01*
X88342403Y-23166416D01*
G75*
G02*
X89387334Y-24366153I-77403J-1122334D01*
G01*
X89347334Y-24946153D01*
G75*
G02*
X88147597Y-25991084I-1122334J77403D01*
G01*
G37*
G04 #@! TD*
D15*
G04 #@! TO.C,SW16*
X83661250Y-105568750D03*
X73501250Y-105568750D03*
D16*
X76081250Y-101568750D03*
D17*
X78581250Y-105568750D03*
G36*
G01*
X74019938Y-103866100D02*
X74019933Y-103866095D01*
G75*
G02*
X73933905Y-102277433I751317J837345D01*
G01*
X75243907Y-100817433D01*
G75*
G02*
X76832569Y-100731405I837345J-751317D01*
G01*
X76832569Y-100731405D01*
G75*
G02*
X76918597Y-102320067I-751317J-837345D01*
G01*
X75608595Y-103780067D01*
G75*
G02*
X74019933Y-103866095I-837345J751317D01*
G01*
G37*
D16*
X81121250Y-100488750D03*
G36*
G01*
X81004733Y-102191145D02*
X81003847Y-102191084D01*
G75*
G02*
X79958916Y-100991347I77403J1122334D01*
G01*
X79998916Y-100411347D01*
G75*
G02*
X81198653Y-99366416I1122334J-77403D01*
G01*
X81198653Y-99366416D01*
G75*
G02*
X82243584Y-100566153I-77403J-1122334D01*
G01*
X82203584Y-101146153D01*
G75*
G02*
X81003847Y-102191084I-1122334J77403D01*
G01*
G37*
G04 #@! TD*
D15*
G04 #@! TO.C,SW15*
X76517500Y-86518750D03*
X66357500Y-86518750D03*
D16*
X68937500Y-82518750D03*
D17*
X71437500Y-86518750D03*
G36*
G01*
X66876188Y-84816100D02*
X66876183Y-84816095D01*
G75*
G02*
X66790155Y-83227433I751317J837345D01*
G01*
X68100157Y-81767433D01*
G75*
G02*
X69688819Y-81681405I837345J-751317D01*
G01*
X69688819Y-81681405D01*
G75*
G02*
X69774847Y-83270067I-751317J-837345D01*
G01*
X68464845Y-84730067D01*
G75*
G02*
X66876183Y-84816095I-837345J751317D01*
G01*
G37*
D16*
X73977500Y-81438750D03*
G36*
G01*
X73860983Y-83141145D02*
X73860097Y-83141084D01*
G75*
G02*
X72815166Y-81941347I77403J1122334D01*
G01*
X72855166Y-81361347D01*
G75*
G02*
X74054903Y-80316416I1122334J-77403D01*
G01*
X74054903Y-80316416D01*
G75*
G02*
X75099834Y-81516153I-77403J-1122334D01*
G01*
X75059834Y-82096153D01*
G75*
G02*
X73860097Y-83141084I-1122334J77403D01*
G01*
G37*
G04 #@! TD*
D15*
G04 #@! TO.C,SW14*
X86042500Y-67468750D03*
X75882500Y-67468750D03*
D16*
X78462500Y-63468750D03*
D17*
X80962500Y-67468750D03*
G36*
G01*
X76401188Y-65766100D02*
X76401183Y-65766095D01*
G75*
G02*
X76315155Y-64177433I751317J837345D01*
G01*
X77625157Y-62717433D01*
G75*
G02*
X79213819Y-62631405I837345J-751317D01*
G01*
X79213819Y-62631405D01*
G75*
G02*
X79299847Y-64220067I-751317J-837345D01*
G01*
X77989845Y-65680067D01*
G75*
G02*
X76401183Y-65766095I-837345J751317D01*
G01*
G37*
D16*
X83502500Y-62388750D03*
G36*
G01*
X83385983Y-64091145D02*
X83385097Y-64091084D01*
G75*
G02*
X82340166Y-62891347I77403J1122334D01*
G01*
X82380166Y-62311347D01*
G75*
G02*
X83579903Y-61266416I1122334J-77403D01*
G01*
X83579903Y-61266416D01*
G75*
G02*
X84624834Y-62466153I-77403J-1122334D01*
G01*
X84584834Y-63046153D01*
G75*
G02*
X83385097Y-64091084I-1122334J77403D01*
G01*
G37*
G04 #@! TD*
D15*
G04 #@! TO.C,SW13*
X81280000Y-48418750D03*
X71120000Y-48418750D03*
D16*
X73700000Y-44418750D03*
D17*
X76200000Y-48418750D03*
G36*
G01*
X71638688Y-46716100D02*
X71638683Y-46716095D01*
G75*
G02*
X71552655Y-45127433I751317J837345D01*
G01*
X72862657Y-43667433D01*
G75*
G02*
X74451319Y-43581405I837345J-751317D01*
G01*
X74451319Y-43581405D01*
G75*
G02*
X74537347Y-45170067I-751317J-837345D01*
G01*
X73227345Y-46630067D01*
G75*
G02*
X71638683Y-46716095I-837345J751317D01*
G01*
G37*
D16*
X78740000Y-43338750D03*
G36*
G01*
X78623483Y-45041145D02*
X78622597Y-45041084D01*
G75*
G02*
X77577666Y-43841347I77403J1122334D01*
G01*
X77617666Y-43261347D01*
G75*
G02*
X78817403Y-42216416I1122334J-77403D01*
G01*
X78817403Y-42216416D01*
G75*
G02*
X79862334Y-43416153I-77403J-1122334D01*
G01*
X79822334Y-43996153D01*
G75*
G02*
X78622597Y-45041084I-1122334J77403D01*
G01*
G37*
G04 #@! TD*
D15*
G04 #@! TO.C,SW12*
X71755000Y-29368750D03*
X61595000Y-29368750D03*
D16*
X64175000Y-25368750D03*
D17*
X66675000Y-29368750D03*
G36*
G01*
X62113688Y-27666100D02*
X62113683Y-27666095D01*
G75*
G02*
X62027655Y-26077433I751317J837345D01*
G01*
X63337657Y-24617433D01*
G75*
G02*
X64926319Y-24531405I837345J-751317D01*
G01*
X64926319Y-24531405D01*
G75*
G02*
X65012347Y-26120067I-751317J-837345D01*
G01*
X63702345Y-27580067D01*
G75*
G02*
X62113683Y-27666095I-837345J751317D01*
G01*
G37*
D16*
X69215000Y-24288750D03*
G36*
G01*
X69098483Y-25991145D02*
X69097597Y-25991084D01*
G75*
G02*
X68052666Y-24791347I77403J1122334D01*
G01*
X68092666Y-24211347D01*
G75*
G02*
X69292403Y-23166416I1122334J-77403D01*
G01*
X69292403Y-23166416D01*
G75*
G02*
X70337334Y-24366153I-77403J-1122334D01*
G01*
X70297334Y-24946153D01*
G75*
G02*
X69097597Y-25991084I-1122334J77403D01*
G01*
G37*
G04 #@! TD*
D15*
G04 #@! TO.C,SW11*
X59848750Y-105568750D03*
X49688750Y-105568750D03*
D16*
X52268750Y-101568750D03*
D17*
X54768750Y-105568750D03*
G36*
G01*
X50207438Y-103866100D02*
X50207433Y-103866095D01*
G75*
G02*
X50121405Y-102277433I751317J837345D01*
G01*
X51431407Y-100817433D01*
G75*
G02*
X53020069Y-100731405I837345J-751317D01*
G01*
X53020069Y-100731405D01*
G75*
G02*
X53106097Y-102320067I-751317J-837345D01*
G01*
X51796095Y-103780067D01*
G75*
G02*
X50207433Y-103866095I-837345J751317D01*
G01*
G37*
D16*
X57308750Y-100488750D03*
G36*
G01*
X57192233Y-102191145D02*
X57191347Y-102191084D01*
G75*
G02*
X56146416Y-100991347I77403J1122334D01*
G01*
X56186416Y-100411347D01*
G75*
G02*
X57386153Y-99366416I1122334J-77403D01*
G01*
X57386153Y-99366416D01*
G75*
G02*
X58431084Y-100566153I-77403J-1122334D01*
G01*
X58391084Y-101146153D01*
G75*
G02*
X57191347Y-102191084I-1122334J77403D01*
G01*
G37*
G04 #@! TD*
D15*
G04 #@! TO.C,SW10*
X57467500Y-86518750D03*
X47307500Y-86518750D03*
D16*
X49887500Y-82518750D03*
D17*
X52387500Y-86518750D03*
G36*
G01*
X47826188Y-84816100D02*
X47826183Y-84816095D01*
G75*
G02*
X47740155Y-83227433I751317J837345D01*
G01*
X49050157Y-81767433D01*
G75*
G02*
X50638819Y-81681405I837345J-751317D01*
G01*
X50638819Y-81681405D01*
G75*
G02*
X50724847Y-83270067I-751317J-837345D01*
G01*
X49414845Y-84730067D01*
G75*
G02*
X47826183Y-84816095I-837345J751317D01*
G01*
G37*
D16*
X54927500Y-81438750D03*
G36*
G01*
X54810983Y-83141145D02*
X54810097Y-83141084D01*
G75*
G02*
X53765166Y-81941347I77403J1122334D01*
G01*
X53805166Y-81361347D01*
G75*
G02*
X55004903Y-80316416I1122334J-77403D01*
G01*
X55004903Y-80316416D01*
G75*
G02*
X56049834Y-81516153I-77403J-1122334D01*
G01*
X56009834Y-82096153D01*
G75*
G02*
X54810097Y-83141084I-1122334J77403D01*
G01*
G37*
G04 #@! TD*
D15*
G04 #@! TO.C,SW9*
X66992500Y-67468750D03*
X56832500Y-67468750D03*
D16*
X59412500Y-63468750D03*
D17*
X61912500Y-67468750D03*
G36*
G01*
X57351188Y-65766100D02*
X57351183Y-65766095D01*
G75*
G02*
X57265155Y-64177433I751317J837345D01*
G01*
X58575157Y-62717433D01*
G75*
G02*
X60163819Y-62631405I837345J-751317D01*
G01*
X60163819Y-62631405D01*
G75*
G02*
X60249847Y-64220067I-751317J-837345D01*
G01*
X58939845Y-65680067D01*
G75*
G02*
X57351183Y-65766095I-837345J751317D01*
G01*
G37*
D16*
X64452500Y-62388750D03*
G36*
G01*
X64335983Y-64091145D02*
X64335097Y-64091084D01*
G75*
G02*
X63290166Y-62891347I77403J1122334D01*
G01*
X63330166Y-62311347D01*
G75*
G02*
X64529903Y-61266416I1122334J-77403D01*
G01*
X64529903Y-61266416D01*
G75*
G02*
X65574834Y-62466153I-77403J-1122334D01*
G01*
X65534834Y-63046153D01*
G75*
G02*
X64335097Y-64091084I-1122334J77403D01*
G01*
G37*
G04 #@! TD*
D15*
G04 #@! TO.C,SW8*
X62230000Y-48418750D03*
X52070000Y-48418750D03*
D16*
X54650000Y-44418750D03*
D17*
X57150000Y-48418750D03*
G36*
G01*
X52588688Y-46716100D02*
X52588683Y-46716095D01*
G75*
G02*
X52502655Y-45127433I751317J837345D01*
G01*
X53812657Y-43667433D01*
G75*
G02*
X55401319Y-43581405I837345J-751317D01*
G01*
X55401319Y-43581405D01*
G75*
G02*
X55487347Y-45170067I-751317J-837345D01*
G01*
X54177345Y-46630067D01*
G75*
G02*
X52588683Y-46716095I-837345J751317D01*
G01*
G37*
D16*
X59690000Y-43338750D03*
G36*
G01*
X59573483Y-45041145D02*
X59572597Y-45041084D01*
G75*
G02*
X58527666Y-43841347I77403J1122334D01*
G01*
X58567666Y-43261347D01*
G75*
G02*
X59767403Y-42216416I1122334J-77403D01*
G01*
X59767403Y-42216416D01*
G75*
G02*
X60812334Y-43416153I-77403J-1122334D01*
G01*
X60772334Y-43996153D01*
G75*
G02*
X59572597Y-45041084I-1122334J77403D01*
G01*
G37*
G04 #@! TD*
D15*
G04 #@! TO.C,SW7*
X52705000Y-29368750D03*
X42545000Y-29368750D03*
D16*
X45125000Y-25368750D03*
D17*
X47625000Y-29368750D03*
G36*
G01*
X43063688Y-27666100D02*
X43063683Y-27666095D01*
G75*
G02*
X42977655Y-26077433I751317J837345D01*
G01*
X44287657Y-24617433D01*
G75*
G02*
X45876319Y-24531405I837345J-751317D01*
G01*
X45876319Y-24531405D01*
G75*
G02*
X45962347Y-26120067I-751317J-837345D01*
G01*
X44652345Y-27580067D01*
G75*
G02*
X43063683Y-27666095I-837345J751317D01*
G01*
G37*
D16*
X50165000Y-24288750D03*
G36*
G01*
X50048483Y-25991145D02*
X50047597Y-25991084D01*
G75*
G02*
X49002666Y-24791347I77403J1122334D01*
G01*
X49042666Y-24211347D01*
G75*
G02*
X50242403Y-23166416I1122334J-77403D01*
G01*
X50242403Y-23166416D01*
G75*
G02*
X51287334Y-24366153I-77403J-1122334D01*
G01*
X51247334Y-24946153D01*
G75*
G02*
X50047597Y-25991084I-1122334J77403D01*
G01*
G37*
G04 #@! TD*
D15*
G04 #@! TO.C,SW6*
X36036250Y-105568750D03*
X25876250Y-105568750D03*
D16*
X28456250Y-101568750D03*
D17*
X30956250Y-105568750D03*
G36*
G01*
X26394938Y-103866100D02*
X26394933Y-103866095D01*
G75*
G02*
X26308905Y-102277433I751317J837345D01*
G01*
X27618907Y-100817433D01*
G75*
G02*
X29207569Y-100731405I837345J-751317D01*
G01*
X29207569Y-100731405D01*
G75*
G02*
X29293597Y-102320067I-751317J-837345D01*
G01*
X27983595Y-103780067D01*
G75*
G02*
X26394933Y-103866095I-837345J751317D01*
G01*
G37*
D16*
X33496250Y-100488750D03*
G36*
G01*
X33379733Y-102191145D02*
X33378847Y-102191084D01*
G75*
G02*
X32333916Y-100991347I77403J1122334D01*
G01*
X32373916Y-100411347D01*
G75*
G02*
X33573653Y-99366416I1122334J-77403D01*
G01*
X33573653Y-99366416D01*
G75*
G02*
X34618584Y-100566153I-77403J-1122334D01*
G01*
X34578584Y-101146153D01*
G75*
G02*
X33378847Y-102191084I-1122334J77403D01*
G01*
G37*
G04 #@! TD*
D15*
G04 #@! TO.C,SW5*
X36036250Y-86518750D03*
X25876250Y-86518750D03*
D16*
X28456250Y-82518750D03*
D17*
X30956250Y-86518750D03*
G36*
G01*
X26394938Y-84816100D02*
X26394933Y-84816095D01*
G75*
G02*
X26308905Y-83227433I751317J837345D01*
G01*
X27618907Y-81767433D01*
G75*
G02*
X29207569Y-81681405I837345J-751317D01*
G01*
X29207569Y-81681405D01*
G75*
G02*
X29293597Y-83270067I-751317J-837345D01*
G01*
X27983595Y-84730067D01*
G75*
G02*
X26394933Y-84816095I-837345J751317D01*
G01*
G37*
D16*
X33496250Y-81438750D03*
G36*
G01*
X33379733Y-83141145D02*
X33378847Y-83141084D01*
G75*
G02*
X32333916Y-81941347I77403J1122334D01*
G01*
X32373916Y-81361347D01*
G75*
G02*
X33573653Y-80316416I1122334J-77403D01*
G01*
X33573653Y-80316416D01*
G75*
G02*
X34618584Y-81516153I-77403J-1122334D01*
G01*
X34578584Y-82096153D01*
G75*
G02*
X33378847Y-83141084I-1122334J77403D01*
G01*
G37*
G04 #@! TD*
D15*
G04 #@! TO.C,SW4*
X40798750Y-67468750D03*
X30638750Y-67468750D03*
D16*
X33218750Y-63468750D03*
D17*
X35718750Y-67468750D03*
G36*
G01*
X31157438Y-65766100D02*
X31157433Y-65766095D01*
G75*
G02*
X31071405Y-64177433I751317J837345D01*
G01*
X32381407Y-62717433D01*
G75*
G02*
X33970069Y-62631405I837345J-751317D01*
G01*
X33970069Y-62631405D01*
G75*
G02*
X34056097Y-64220067I-751317J-837345D01*
G01*
X32746095Y-65680067D01*
G75*
G02*
X31157433Y-65766095I-837345J751317D01*
G01*
G37*
D16*
X38258750Y-62388750D03*
G36*
G01*
X38142233Y-64091145D02*
X38141347Y-64091084D01*
G75*
G02*
X37096416Y-62891347I77403J1122334D01*
G01*
X37136416Y-62311347D01*
G75*
G02*
X38336153Y-61266416I1122334J-77403D01*
G01*
X38336153Y-61266416D01*
G75*
G02*
X39381084Y-62466153I-77403J-1122334D01*
G01*
X39341084Y-63046153D01*
G75*
G02*
X38141347Y-64091084I-1122334J77403D01*
G01*
G37*
G04 #@! TD*
D15*
G04 #@! TO.C,SW3*
X38417500Y-48418750D03*
X28257500Y-48418750D03*
D16*
X30837500Y-44418750D03*
D17*
X33337500Y-48418750D03*
G36*
G01*
X28776188Y-46716100D02*
X28776183Y-46716095D01*
G75*
G02*
X28690155Y-45127433I751317J837345D01*
G01*
X30000157Y-43667433D01*
G75*
G02*
X31588819Y-43581405I837345J-751317D01*
G01*
X31588819Y-43581405D01*
G75*
G02*
X31674847Y-45170067I-751317J-837345D01*
G01*
X30364845Y-46630067D01*
G75*
G02*
X28776183Y-46716095I-837345J751317D01*
G01*
G37*
D16*
X35877500Y-43338750D03*
G36*
G01*
X35760983Y-45041145D02*
X35760097Y-45041084D01*
G75*
G02*
X34715166Y-43841347I77403J1122334D01*
G01*
X34755166Y-43261347D01*
G75*
G02*
X35954903Y-42216416I1122334J-77403D01*
G01*
X35954903Y-42216416D01*
G75*
G02*
X36999834Y-43416153I-77403J-1122334D01*
G01*
X36959834Y-43996153D01*
G75*
G02*
X35760097Y-45041084I-1122334J77403D01*
G01*
G37*
G04 #@! TD*
D15*
G04 #@! TO.C,SW2*
X33655000Y-29368750D03*
X23495000Y-29368750D03*
D16*
X26075000Y-25368750D03*
D17*
X28575000Y-29368750D03*
G36*
G01*
X24013688Y-27666100D02*
X24013683Y-27666095D01*
G75*
G02*
X23927655Y-26077433I751317J837345D01*
G01*
X25237657Y-24617433D01*
G75*
G02*
X26826319Y-24531405I837345J-751317D01*
G01*
X26826319Y-24531405D01*
G75*
G02*
X26912347Y-26120067I-751317J-837345D01*
G01*
X25602345Y-27580067D01*
G75*
G02*
X24013683Y-27666095I-837345J751317D01*
G01*
G37*
D16*
X31115000Y-24288750D03*
G36*
G01*
X30998483Y-25991145D02*
X30997597Y-25991084D01*
G75*
G02*
X29952666Y-24791347I77403J1122334D01*
G01*
X29992666Y-24211347D01*
G75*
G02*
X31192403Y-23166416I1122334J-77403D01*
G01*
X31192403Y-23166416D01*
G75*
G02*
X32237334Y-24366153I-77403J-1122334D01*
G01*
X32197334Y-24946153D01*
G75*
G02*
X30997597Y-25991084I-1122334J77403D01*
G01*
G37*
G04 #@! TD*
G04 #@! TO.C,R2*
G36*
G01*
X340315600Y-50603999D02*
X340315600Y-51504001D01*
G75*
G02*
X340065601Y-51754000I-249999J0D01*
G01*
X339540599Y-51754000D01*
G75*
G02*
X339290600Y-51504001I0J249999D01*
G01*
X339290600Y-50603999D01*
G75*
G02*
X339540599Y-50354000I249999J0D01*
G01*
X340065601Y-50354000D01*
G75*
G02*
X340315600Y-50603999I0J-249999D01*
G01*
G37*
G36*
G01*
X342140600Y-50603999D02*
X342140600Y-51504001D01*
G75*
G02*
X341890601Y-51754000I-249999J0D01*
G01*
X341365599Y-51754000D01*
G75*
G02*
X341115600Y-51504001I0J249999D01*
G01*
X341115600Y-50603999D01*
G75*
G02*
X341365599Y-50354000I249999J0D01*
G01*
X341890601Y-50354000D01*
G75*
G02*
X342140600Y-50603999I0J-249999D01*
G01*
G37*
G04 #@! TD*
G04 #@! TO.C,R1*
G36*
G01*
X340315600Y-53347199D02*
X340315600Y-54247201D01*
G75*
G02*
X340065601Y-54497200I-249999J0D01*
G01*
X339540599Y-54497200D01*
G75*
G02*
X339290600Y-54247201I0J249999D01*
G01*
X339290600Y-53347199D01*
G75*
G02*
X339540599Y-53097200I249999J0D01*
G01*
X340065601Y-53097200D01*
G75*
G02*
X340315600Y-53347199I0J-249999D01*
G01*
G37*
G36*
G01*
X342140600Y-53347199D02*
X342140600Y-54247201D01*
G75*
G02*
X341890601Y-54497200I-249999J0D01*
G01*
X341365599Y-54497200D01*
G75*
G02*
X341115600Y-54247201I0J249999D01*
G01*
X341115600Y-53347199D01*
G75*
G02*
X341365599Y-53097200I249999J0D01*
G01*
X341890601Y-53097200D01*
G75*
G02*
X342140600Y-53347199I0J-249999D01*
G01*
G37*
G04 #@! TD*
D19*
G04 #@! TO.C,D34*
X287337500Y-104981250D03*
X288287500Y-102981250D03*
X286387500Y-102981250D03*
G04 #@! TD*
G04 #@! TO.C,D33*
X285750000Y-84343750D03*
X286700000Y-82343750D03*
X284800000Y-82343750D03*
G04 #@! TD*
G04 #@! TO.C,D32*
X263525000Y-66881250D03*
X264475000Y-64881250D03*
X262575000Y-64881250D03*
G04 #@! TD*
G04 #@! TO.C,D31*
X278606250Y-47831250D03*
X279556250Y-45831250D03*
X277656250Y-45831250D03*
G04 #@! TD*
G04 #@! TO.C,D30*
X266700000Y-28781250D03*
X267650000Y-26781250D03*
X265750000Y-26781250D03*
G04 #@! TD*
G04 #@! TO.C,D28*
X233362500Y-104981250D03*
X234312500Y-102981250D03*
X232412500Y-102981250D03*
G04 #@! TD*
G04 #@! TO.C,D27*
X233362500Y-85931250D03*
X234312500Y-83931250D03*
X232412500Y-83931250D03*
G04 #@! TD*
G04 #@! TO.C,D26*
X242887500Y-66881250D03*
X243837500Y-64881250D03*
X241937500Y-64881250D03*
G04 #@! TD*
G04 #@! TO.C,D25*
X238125000Y-47831250D03*
X239075000Y-45831250D03*
X237175000Y-45831250D03*
G04 #@! TD*
G04 #@! TO.C,D24*
X228600000Y-28781250D03*
X229550000Y-26781250D03*
X227650000Y-26781250D03*
G04 #@! TD*
G04 #@! TO.C,D23*
X195262500Y-85931250D03*
X196212500Y-83931250D03*
X194312500Y-83931250D03*
G04 #@! TD*
G04 #@! TO.C,D22*
X204787500Y-66881250D03*
X205737500Y-64881250D03*
X203837500Y-64881250D03*
G04 #@! TD*
G04 #@! TO.C,D21*
X200025000Y-47831250D03*
X200975000Y-45831250D03*
X199075000Y-45831250D03*
G04 #@! TD*
G04 #@! TO.C,D20*
X190500000Y-28781250D03*
X191450000Y-26781250D03*
X189550000Y-26781250D03*
G04 #@! TD*
G04 #@! TO.C,D19*
X162718750Y-104981250D03*
X163668750Y-102981250D03*
X161768750Y-102981250D03*
G04 #@! TD*
G04 #@! TO.C,D18*
X157162500Y-85931250D03*
X158112500Y-83931250D03*
X156212500Y-83931250D03*
G04 #@! TD*
G04 #@! TO.C,D17*
X166687500Y-66881250D03*
X167637500Y-64881250D03*
X165737500Y-64881250D03*
G04 #@! TD*
G04 #@! TO.C,D16*
X161925000Y-47831250D03*
X162875000Y-45831250D03*
X160975000Y-45831250D03*
G04 #@! TD*
G04 #@! TO.C,D15*
X152400000Y-28781250D03*
X153350000Y-26781250D03*
X151450000Y-26781250D03*
G04 #@! TD*
G04 #@! TO.C,D14*
X119062500Y-85725000D03*
X120012500Y-83725000D03*
X118112500Y-83725000D03*
G04 #@! TD*
G04 #@! TO.C,D13*
X128587500Y-66881250D03*
X129537500Y-64881250D03*
X127637500Y-64881250D03*
G04 #@! TD*
G04 #@! TO.C,D12*
X123825000Y-47831250D03*
X124775000Y-45831250D03*
X122875000Y-45831250D03*
G04 #@! TD*
G04 #@! TO.C,D11*
X114300000Y-28781250D03*
X115250000Y-26781250D03*
X113350000Y-26781250D03*
G04 #@! TD*
G04 #@! TO.C,D10*
X90643750Y-104775000D03*
X91593750Y-102775000D03*
X89693750Y-102775000D03*
G04 #@! TD*
G04 #@! TO.C,D9*
X80962500Y-85931250D03*
X81912500Y-83931250D03*
X80012500Y-83931250D03*
G04 #@! TD*
G04 #@! TO.C,D8*
X90487500Y-66881250D03*
X91437500Y-64881250D03*
X89537500Y-64881250D03*
G04 #@! TD*
G04 #@! TO.C,D7*
X85725000Y-47831250D03*
X86675000Y-45831250D03*
X84775000Y-45831250D03*
G04 #@! TD*
G04 #@! TO.C,D6*
X76200000Y-28781250D03*
X77150000Y-26781250D03*
X75250000Y-26781250D03*
G04 #@! TD*
G04 #@! TO.C,D5*
X42862500Y-104981250D03*
X43812500Y-102981250D03*
X41912500Y-102981250D03*
G04 #@! TD*
G04 #@! TO.C,D4*
X61912500Y-85931250D03*
X62862500Y-83931250D03*
X60962500Y-83931250D03*
G04 #@! TD*
G04 #@! TO.C,D3*
X49212500Y-66881250D03*
X50162500Y-64881250D03*
X48262500Y-64881250D03*
G04 #@! TD*
G04 #@! TO.C,D2*
X45243750Y-47831250D03*
X46193750Y-45831250D03*
X44293750Y-45831250D03*
G04 #@! TD*
G04 #@! TO.C,D1*
X38100000Y-28781250D03*
X39050000Y-26781250D03*
X37150000Y-26781250D03*
G04 #@! TD*
M02*
