M48
; DRILL file {KiCad (5.1.10)-1} date 07/26/21 23:03:23
; FORMAT={-:-/ absolute / inch / decimal}
; #@! TF.CreationDate,2021-07-26T23:03:23+09:00
; #@! TF.GenerationSoftware,Kicad,Pcbnew,(5.1.10)-1
; #@! TF.FileFunction,Plated,1,2,PTH
FMAT,2
INCH
T1C0.0157
T2C0.0315
T3C0.0579
%
G90
G05
T1
X1.5Y-1.44
X1.856Y-2.3592
X3.416Y-2.323
X4.98Y-2.2905
X6.406Y-2.2571
X7.918Y-2.2236
X9.374Y-2.1901
X10.852Y-2.0207
T2
X12.3562Y-1.3687
X12.3562Y-1.4688
X12.3562Y-1.5687
X12.3562Y-1.6687
X12.3562Y-1.7688
X12.3562Y-1.8687
X12.3562Y-1.9688
X12.3562Y-2.0688
X12.3562Y-2.1687
X12.3562Y-2.2687
X12.3562Y-2.3687
X12.3562Y-2.4688
X13.1562Y-0.9688
X13.1562Y-1.0687
X13.1562Y-1.1687
X13.1562Y-1.2688
X13.1562Y-1.3687
X13.1562Y-1.4688
X13.1562Y-1.5687
X13.1562Y-1.6687
X13.1562Y-1.7688
X13.1562Y-1.8687
X13.1562Y-1.9688
X13.1562Y-2.0688
X13.1562Y-2.1687
X13.1562Y-2.2687
X13.1562Y-2.3687
X13.1562Y-2.4688
T3
X0.975Y-1.0562
X1.0266Y-0.9988
X1.0687Y-3.3062
X1.0687Y-4.0562
X1.1203Y-3.2488
X1.1203Y-3.9988
X1.1625Y-1.8062
X1.2141Y-1.7488
X1.2234Y-0.9791
X1.225Y-0.9562
X1.2562Y-2.5562
X1.3078Y-2.4988
X1.3172Y-3.2291
X1.3172Y-3.9791
X1.3187Y-3.2062
X1.3187Y-3.9562
X1.4109Y-1.7291
X1.4125Y-1.7063
X1.4437Y-3.3062
X1.4953Y-3.2488
X1.5047Y-2.4791
X1.5062Y-2.4562
X1.6922Y-3.2291
X1.6937Y-3.2062
X1.725Y-1.0562
X1.7766Y-0.9988
X1.9125Y-3.3062
X1.9641Y-3.2488
X1.9734Y-0.9791
X1.975Y-0.9562
X2.0063Y-4.0562
X2.0578Y-3.9988
X2.1Y-1.8062
X2.1516Y-1.7488
X2.1609Y-3.2291
X2.1625Y-3.2062
X2.2547Y-3.9791
X2.2563Y-3.9562
X2.2875Y-2.5562
X2.3391Y-2.4988
X2.3484Y-1.7291
X2.35Y-1.7063
X2.475Y-1.0562
X2.5266Y-0.9988
X2.5359Y-2.4791
X2.5375Y-2.4562
X2.6625Y-3.3062
X2.7141Y-3.2488
X2.7234Y-0.9791
X2.725Y-0.9562
X2.85Y-1.8062
X2.9016Y-1.7488
X2.9109Y-3.2291
X2.9125Y-3.2062
X2.9438Y-4.0562
X2.9953Y-3.9988
X3.0375Y-2.5562
X3.0891Y-2.4988
X3.0984Y-1.7291
X3.1Y-1.7063
X3.1922Y-3.9791
X3.1938Y-3.9562
X3.225Y-1.0562
X3.2766Y-0.9988
X3.2859Y-2.4791
X3.2875Y-2.4562
X3.4125Y-3.3062
X3.4641Y-3.2488
X3.4734Y-0.9791
X3.475Y-0.9562
X3.6Y-1.8062
X3.6516Y-1.7488
X3.6609Y-3.2291
X3.6625Y-3.2062
X3.7875Y-2.5562
X3.8391Y-2.4988
X3.8484Y-1.7291
X3.85Y-1.7063
X3.975Y-1.0562
X4.0266Y-0.9988
X4.0359Y-2.4791
X4.0375Y-2.4562
X4.1625Y-3.3062
X4.2141Y-3.2488
X4.2234Y-0.9791
X4.225Y-0.9562
X4.35Y-1.8062
X4.4016Y-1.7488
X4.4109Y-3.2291
X4.4125Y-3.2062
X4.5375Y-2.5562
X4.5891Y-2.4988
X4.5984Y-1.7291
X4.6Y-1.7063
X4.725Y-1.0562
X4.7766Y-0.9988
X4.7859Y-2.4791
X4.7875Y-2.4562
X4.9125Y-3.3062
X4.9641Y-3.2488
X4.9734Y-0.9791
X4.975Y-0.9562
X5.1Y-1.8062
X5.1516Y-1.7488
X5.1609Y-3.2291
X5.1625Y-3.2062
X5.2875Y-2.5562
X5.3391Y-2.4988
X5.3484Y-1.7291
X5.35Y-1.7063
X5.475Y-1.0562
X5.5266Y-0.9988
X5.5359Y-2.4791
X5.5375Y-2.4562
X5.6625Y-3.3062
X5.7141Y-3.2488
X5.7234Y-0.9791
X5.725Y-0.9562
X5.7562Y-4.0562
X5.8078Y-3.9988
X5.85Y-1.8062
X5.9016Y-1.7488
X5.9109Y-3.2291
X5.9125Y-3.2062
X6.0047Y-3.9791
X6.0062Y-3.9562
X6.0375Y-2.5562
X6.0891Y-2.4988
X6.0984Y-1.7291
X6.1Y-1.7063
X6.225Y-1.0562
X6.2766Y-0.9988
X6.2859Y-2.4791
X6.2875Y-2.4562
X6.4125Y-3.3062
X6.4641Y-3.2488
X6.4734Y-0.9791
X6.475Y-0.9562
X6.6Y-1.8062
X6.6516Y-1.7488
X6.6609Y-3.2291
X6.6625Y-3.2062
X6.7875Y-2.5562
X6.8391Y-2.4988
X6.8484Y-1.7291
X6.85Y-1.7063
X6.975Y-1.0562
X7.0266Y-0.9988
X7.0359Y-2.4791
X7.0375Y-2.4562
X7.1625Y-3.3062
X7.2141Y-3.2488
X7.2234Y-0.9791
X7.225Y-0.9562
X7.35Y-1.8062
X7.4016Y-1.7488
X7.4109Y-3.2291
X7.4125Y-3.2062
X7.5375Y-2.5562
X7.5891Y-2.4988
X7.5984Y-1.7291
X7.6Y-1.7063
X7.725Y-1.0562
X7.7766Y-0.9988
X7.7859Y-2.4791
X7.7875Y-2.4562
X7.9125Y-3.3062
X7.9641Y-3.2488
X7.9734Y-0.9791
X7.975Y-0.9562
X8.1Y-1.8062
X8.1516Y-1.7488
X8.1609Y-3.2291
X8.1625Y-3.2062
X8.2875Y-2.5562
X8.3391Y-2.4988
X8.3484Y-1.7291
X8.35Y-1.7063
X8.475Y-1.0562
X8.5266Y-0.9988
X8.5359Y-2.4791
X8.5375Y-2.4562
X8.5687Y-4.0562
X8.6203Y-3.9988
X8.6625Y-3.3062
X8.7141Y-3.2488
X8.7234Y-0.9791
X8.725Y-0.9562
X8.8172Y-3.9791
X8.8187Y-3.9562
X8.85Y-1.8062
X8.9016Y-1.7488
X8.9109Y-3.2291
X8.9125Y-3.2062
X9.0375Y-2.5562
X9.0891Y-2.4988
X9.0984Y-1.7291
X9.1Y-1.7063
X9.225Y-1.0562
X9.2766Y-0.9988
X9.2859Y-2.4791
X9.2875Y-2.4562
X9.4125Y-3.3062
X9.4641Y-3.2488
X9.4734Y-0.9791
X9.475Y-0.9562
X9.5062Y-4.0562
X9.5578Y-3.9988
X9.6Y-1.8062
X9.6516Y-1.7488
X9.6609Y-3.2291
X9.6625Y-3.2062
X9.7547Y-3.9791
X9.7562Y-3.9562
X9.7875Y-2.5562
X9.8391Y-2.4988
X9.8484Y-1.7291
X9.85Y-1.7063
X9.975Y-1.0562
X10.0266Y-0.9988
X10.0359Y-2.4791
X10.0375Y-2.4562
X10.2234Y-0.9791
X10.225Y-0.9562
X10.35Y-1.8062
X10.4016Y-1.7488
X10.4437Y-3.3062
X10.4437Y-4.0562
X10.4953Y-3.2488
X10.4953Y-3.9988
X10.5984Y-1.7291
X10.6Y-1.7063
X10.6922Y-3.2291
X10.6922Y-3.9791
X10.6937Y-3.2062
X10.6937Y-3.9562
X10.8187Y-3.3062
X10.8703Y-3.2488
X11.0062Y-2.5562
X11.0578Y-2.4988
X11.0672Y-3.2291
X11.0687Y-3.2062
X11.1Y-1.0562
X11.1516Y-0.9988
X11.2547Y-2.4791
X11.2562Y-2.4562
X11.2875Y-1.8062
X11.3391Y-1.7488
X11.3484Y-0.9791
X11.35Y-0.9562
X11.475Y-3.3062
X11.5266Y-3.2488
X11.5359Y-1.7291
X11.5375Y-1.7063
X11.7234Y-3.2291
X11.725Y-3.2062
T2
G00X13.5559Y-0.7812
M15
G01X13.5598Y-0.7812
M16
G05
G00X13.6543Y-0.7812
M15
G01X13.6582Y-0.7812
M16
G05
G00X13.7527Y-0.7812
M15
G01X13.7566Y-0.7812
M16
G05
T0
M30
